<svg width="255" height="266" viewBox="0 0 255 266" fill="none" xmlns="http://www.w3.org/2000/svg">
<path d="M121.194 265.977C154.963 265.977 182.338 238.622 182.338 204.878C182.338 171.135 154.963 143.78 121.194 143.78C87.425 143.78 60.0498 171.135 60.0498 204.878C60.0498 238.622 87.425 265.977 121.194 265.977Z" fill="#EFC0A0"/>
<path d="M193.855 156.948C227.624 156.948 255 129.594 255 95.8502C255 62.1065 227.624 34.752 193.855 34.752C160.086 34.752 132.711 62.1065 132.711 95.8502C132.711 129.594 160.086 156.948 193.855 156.948Z" fill="#EFE6CB"/>
<path d="M61.1443 149.142C94.9134 149.142 122.289 121.788 122.289 88.044C122.289 54.3004 94.9134 26.9458 61.1443 26.9458C27.3752 26.9458 0 54.3004 0 88.044C0 121.788 27.3752 149.142 61.1443 149.142Z" fill="#C6DBC3"/>
<path d="M161.836 52.8197C154.192 54.63 143.78 47.4928 156.936 19.3823C156.936 19.3593 180.642 48.3691 161.836 52.8197Z" fill="#705A52"/>
<path d="M179.767 71.0375C172.122 72.8477 161.71 65.7221 174.866 37.6001C174.866 37.5771 198.572 66.5869 179.767 71.0375Z" fill="#705A52"/>
<path d="M198.584 84.7812C190.951 86.5914 180.539 79.4542 193.695 51.3438C193.707 51.3207 217.401 80.3421 198.584 84.7812Z" fill="#705A52"/>
<path d="M216.202 101.188C208.558 102.999 198.146 95.8615 211.302 67.751C211.302 67.7164 235.008 96.7262 216.202 101.188Z" fill="#705A52"/>
<path d="M149.121 35.9508C145.662 42.9957 133.497 46.4548 120.203 18.3789C120.203 18.3789 157.676 18.6326 149.121 35.9508Z" fill="#705A52"/>
<path d="M165.157 49.81C164.995 57.6505 155.483 65.9522 131.512 46.178C131.512 46.178 165.537 30.497 165.157 49.81Z" fill="#705A52"/>
<path d="M185.901 65.8373C185.739 73.6894 176.227 81.9795 152.244 62.2053C152.198 62.2053 186.281 46.5243 185.901 65.8373Z" fill="#705A52"/>
<path d="M201.398 82.0483C201.248 89.9003 191.736 98.1905 167.753 78.4163C167.753 78.4163 201.778 62.7353 201.398 82.0483Z" fill="#705A52"/>
<path d="M217.469 99.2857C217.308 107.138 207.795 115.428 183.812 95.6653C183.812 95.6653 217.849 79.9727 217.469 99.2857Z" fill="#705A52"/>
<path d="M252.509 179.42C254.919 136.136 218.299 102.825 218.299 102.825" stroke="#705A52" stroke-width="0.92" stroke-miterlimit="10"/>
<path d="M252.67 179.697C202.698 102.445 135.293 99.6777 135.293 99.6777C135.293 99.6777 190.718 107.161 251.39 179.432" fill="#705A52"/>
<path d="M252.626 179.502C205.237 120.398 149.893 123.707 149.893 123.707C149.893 123.707 195.909 125.229 251.611 179.352" fill="#705A52"/>
<path d="M32.6786 198.93L22.7051 181.069L38.6397 189.982L54.5628 198.895L38.6628 207.865L22.7627 216.836L32.6786 198.93Z" fill="#705A52"/>
<path d="M124.03 208.744L110.224 222.608L124.644 236.968L138.451 223.104L124.03 208.744Z" fill="#705A52"/>
<path d="M151.594 186.328L140.428 198.972L157.678 214.206L168.844 201.563L151.594 186.328Z" fill="#705A52"/>
<path d="M202.203 198.664V218.726C216.936 213.94 230.947 207.167 243.85 198.595L202.203 198.664Z" fill="#705A52"/>
<path d="M201.129 198.664L55.123 198.895C76.4329 212.902 100.598 221.981 125.859 225.472C151.121 228.962 176.842 226.776 201.152 219.072L201.129 198.664Z" fill="#705A52"/>
<path d="M194.822 208.338L194.833 210.99L193.553 209.664L192.273 208.338L193.542 207.012L194.822 205.687V208.338Z" fill="white"/>
<path d="M118.149 208.465V211.117L116.869 209.791L115.589 208.465L116.869 207.139L118.137 205.802L118.149 208.465Z" fill="white"/>
<path d="M118.151 214.84L118.162 217.504L116.882 216.178L115.603 214.852L116.871 213.514L118.151 212.188V214.84Z" fill="white"/>
<path d="M85.5441 202.124V204.787L84.2642 203.461L82.9844 202.135L84.2642 200.798L85.5441 199.472V202.124Z" fill="white"/>
<path d="M85.5528 208.51V211.162L84.273 209.836L82.9932 208.522L84.273 207.184L85.5413 205.858L85.5528 208.51Z" fill="white"/>
<path d="M96.4171 208.499V211.151L95.1373 209.825L93.8574 208.499L95.1373 207.173L96.4171 205.836V208.499Z" fill="white"/>
<path d="M107.277 208.476L107.288 211.128L106.008 209.802L104.729 208.476L105.997 207.15L107.277 205.824V208.476Z" fill="white"/>
<path d="M107.288 214.864L107.3 217.516L106.008 216.19L104.729 214.864L106.008 213.538L107.288 212.212V214.864Z" fill="white"/>
<path d="M118.149 208.465V211.117L116.869 209.791L115.589 208.465L116.869 207.139L118.137 205.802L118.149 208.465Z" fill="white"/>
<path d="M118.151 214.84L118.162 217.504L116.882 216.178L115.603 214.852L116.871 213.514L118.151 212.188V214.84Z" fill="white"/>
<path d="M162.243 208.384V211.048L160.963 209.722L159.684 208.396L160.963 207.07L162.232 205.732L162.243 208.384Z" fill="white"/>
<path d="M162.252 214.772V217.424L160.972 216.11L159.692 214.784L160.972 213.446L162.241 212.12L162.252 214.772Z" fill="white"/>
<path d="M129.644 208.442V211.094L128.364 209.768L127.084 208.442L128.364 207.116L129.644 205.79V208.442Z" fill="white"/>
<path d="M129.657 214.83V217.482L128.377 216.156L127.098 214.83L128.377 213.504L129.657 212.178V214.83Z" fill="white"/>
<path d="M140.506 208.43L140.518 211.082L139.238 209.756L137.958 208.43L139.226 207.104L140.506 205.767V208.43Z" fill="white"/>
<path d="M140.516 214.806L140.527 217.47L139.248 216.144L137.968 214.818L139.236 213.48L140.516 212.154V214.806Z" fill="white"/>
<path d="M151.378 208.407V211.059L150.098 209.733L148.818 208.407L150.098 207.081L151.367 205.755L151.378 208.407Z" fill="white"/>
<path d="M151.38 214.795L151.392 217.446L150.112 216.12L148.832 214.795L150.1 213.469L151.38 212.143V214.795Z" fill="white"/>
<path d="M162.243 208.384V211.048L160.963 209.722L159.684 208.396L160.963 207.07L162.232 205.732L162.243 208.384Z" fill="white"/>
<path d="M162.252 214.772V217.424L160.972 216.11L159.692 214.784L160.972 213.446L162.241 212.12L162.252 214.772Z" fill="white"/>
<path d="M173.103 208.373V211.025L171.823 209.699L170.543 208.373L171.823 207.047L173.103 205.721V208.373Z" fill="white"/>
<path d="M173.114 214.76V217.412L171.835 216.086L170.555 214.76L171.835 213.434L173.103 212.108L173.114 214.76Z" fill="white"/>
<path d="M183.961 208.349L183.973 211.013L182.681 209.687L181.413 208.361L182.681 207.035L183.961 205.697V208.349Z" fill="white"/>
<path d="M194.836 214.725L194.848 217.377L193.568 216.051L192.288 214.725L193.556 213.399L194.836 212.073V214.725Z" fill="white"/>
<path d="M183.973 214.738V217.39L182.693 216.064L181.413 214.738L182.693 213.412L183.973 212.086V214.738Z" fill="white"/>
<path d="M189.072 205.79L189.084 208.442L187.804 207.116L186.513 205.801L187.793 204.464L189.072 203.138V205.79Z" fill="white"/>
<path d="M189.081 212.177L189.093 214.829L187.801 213.503L186.521 212.177L187.801 210.851L189.081 209.525V212.177Z" fill="white"/>
<path d="M112.384 205.917L112.396 208.569L111.116 207.243L109.836 205.917L111.104 204.591L112.384 203.265V205.917Z" fill="white"/>
<path d="M112.393 212.304L112.404 214.956L111.125 213.63L109.845 212.304L111.113 210.978L112.393 209.652V212.304Z" fill="white"/>
<path d="M79.7999 205.974V208.626L78.5201 207.3L77.2402 205.974L78.5201 204.648L79.7884 203.311L79.7999 205.974Z" fill="white"/>
<path d="M90.6603 205.952V208.604L89.3804 207.278L88.1006 205.952L89.3804 204.626L90.6603 203.3V205.952Z" fill="white"/>
<path d="M101.526 205.94L101.537 208.592L100.246 207.266L98.9658 205.94L100.246 204.614L101.526 203.276V205.94Z" fill="white"/>
<path d="M101.534 212.316V214.968L100.254 213.653L98.9746 212.328L100.254 210.99L101.534 209.664V212.316Z" fill="white"/>
<path d="M112.384 205.917L112.396 208.569L111.116 207.243L109.836 205.917L111.104 204.591L112.384 203.265V205.917Z" fill="white"/>
<path d="M112.393 212.304L112.404 214.956L111.125 213.63L109.845 212.304L111.113 210.978L112.393 209.652V212.304Z" fill="white"/>
<path d="M156.485 205.848V208.5L155.206 207.174L153.926 205.848L155.206 204.522L156.474 203.185L156.485 205.848Z" fill="white"/>
<path d="M156.489 212.223L156.5 214.887L155.22 213.561L153.94 212.235L155.22 210.909L156.489 209.571V212.223Z" fill="white"/>
<path d="M156.498 218.611L156.51 221.274L155.23 219.948L153.95 218.622L155.218 217.285L156.498 215.959V218.611Z" fill="white"/>
<path d="M123.891 205.893V208.545L122.611 207.231L121.331 205.905L122.611 204.567L123.891 203.241V205.893Z" fill="white"/>
<path d="M123.903 212.281V214.933L122.624 213.607L121.344 212.292L122.624 210.955L123.892 209.629L123.903 212.281Z" fill="white"/>
<path d="M123.915 218.669V221.32L122.635 219.994L121.355 218.669L122.635 217.343L123.904 216.017L123.915 218.669Z" fill="white"/>
<path d="M134.754 205.882L134.766 208.534L133.486 207.208L132.206 205.882L133.474 204.556L134.754 203.23V205.882Z" fill="white"/>
<path d="M134.766 212.27V214.922L133.486 213.596L132.206 212.27L133.486 210.944L134.766 209.606V212.27Z" fill="white"/>
<path d="M134.775 218.646V221.31L133.495 219.984L132.215 218.658L133.495 217.332L134.775 215.994V218.646Z" fill="white"/>
<path d="M145.615 205.859L145.626 208.511L144.346 207.185L143.066 205.87L144.335 204.533L145.615 203.207V205.859Z" fill="white"/>
<path d="M145.624 212.247L145.636 214.899L144.356 213.573L143.076 212.247L144.344 210.921L145.624 209.595V212.247Z" fill="white"/>
<path d="M145.636 218.634L145.647 221.286L144.356 219.96L143.076 218.634L144.356 217.308L145.636 215.982V218.634Z" fill="white"/>
<path d="M156.485 205.848V208.5L155.206 207.174L153.926 205.848L155.206 204.522L156.474 203.185L156.485 205.848Z" fill="white"/>
<path d="M156.489 212.223L156.5 214.887L155.22 213.561L153.94 212.235L155.22 210.909L156.489 209.571V212.223Z" fill="white"/>
<path d="M156.498 218.611L156.51 221.274L155.23 219.948L153.95 218.622L155.218 217.285L156.498 215.959V218.611Z" fill="white"/>
<path d="M167.347 205.824V208.476L166.067 207.161L164.787 205.835L166.067 204.498L167.335 203.172L167.347 205.824Z" fill="white"/>
<path d="M167.36 212.212V214.864L166.081 213.538L164.801 212.212L166.081 210.887L167.349 209.561L167.36 212.212Z" fill="white"/>
<path d="M167.37 218.6V221.252L166.09 219.926L164.811 218.6L166.09 217.274L167.359 215.948L167.37 218.6Z" fill="white"/>
<path d="M178.211 205.813V208.465L176.931 207.139L175.651 205.813L176.931 204.487L178.211 203.149V205.813Z" fill="white"/>
<path d="M178.221 212.189V214.853L176.941 213.527L175.661 212.201L176.941 210.875L178.209 209.537L178.221 212.189Z" fill="white"/>
<path d="M178.234 218.577V221.229L176.954 219.914L175.674 218.588L176.954 217.251L178.222 215.925L178.234 218.577Z" fill="white"/>
<path d="M221.448 203.634C221.177 203.634 220.912 203.553 220.686 203.403C220.46 203.252 220.284 203.038 220.181 202.787C220.077 202.536 220.05 202.26 220.103 201.994C220.155 201.728 220.286 201.483 220.478 201.292C220.67 201.1 220.914 200.969 221.181 200.916C221.447 200.863 221.723 200.89 221.973 200.994C222.224 201.098 222.438 201.274 222.589 201.499C222.74 201.725 222.82 201.99 222.82 202.262C222.82 202.626 222.676 202.975 222.418 203.232C222.161 203.489 221.812 203.634 221.448 203.634Z" fill="white"/>
<path d="M221.448 201.236C221.72 201.236 221.981 201.344 222.174 201.536C222.366 201.729 222.474 201.99 222.474 202.262C222.476 202.395 222.45 202.527 222.398 202.65C222.347 202.773 222.271 202.884 222.175 202.977C222.033 203.121 221.852 203.221 221.654 203.262C221.456 203.303 221.25 203.284 221.063 203.207C220.876 203.13 220.716 202.999 220.604 202.831C220.492 202.662 220.432 202.464 220.434 202.262C220.434 201.992 220.54 201.732 220.73 201.54C220.92 201.348 221.178 201.239 221.448 201.236ZM221.448 200.532C220.99 200.532 220.55 200.714 220.225 201.039C219.901 201.363 219.719 201.803 219.719 202.262C219.719 202.72 219.901 203.16 220.225 203.485C220.55 203.809 220.99 203.991 221.448 203.991C221.907 203.991 222.347 203.809 222.671 203.485C222.996 203.16 223.178 202.72 223.178 202.262C223.178 201.803 222.996 201.363 222.671 201.039C222.347 200.714 221.907 200.532 221.448 200.532Z" fill="white"/>
<path d="M83.0164 85.9916C92.0676 66.1367 83.4776 52.1622 78.6119 49.3488C73.5156 46.9851 57.1313 47.9767 46.0508 66.7708C15.9456 117.942 14.7119 172.122 14.7119 172.122C14.7119 172.122 58.4227 140.033 83.0164 85.9916Z" fill="#705A52"/>
<path d="M67.9377 85.4149L70.2552 86.6141L68.5142 87.1329L66.7847 87.6403L66.2082 85.9223L65.6201 84.2158L67.9377 85.4149Z" fill="white"/>
<path d="M67.9377 85.4149L70.2552 86.6141L68.5142 87.1329L66.7847 87.6403L66.2082 85.9223L65.6201 84.2158L67.9377 85.4149Z" fill="white"/>
<path d="M72.8732 75.9607L75.1792 77.1598L73.4497 77.6671L71.7087 78.186L71.1322 76.468L70.5557 74.75L72.8732 75.9607Z" fill="white"/>
<path d="M68.0285 79.7997L70.346 81.0104L68.605 81.5177L66.8755 82.0366L66.2874 80.3186L65.7109 78.6006L68.0285 79.7997Z" fill="white"/>
<path d="M72.9525 70.3456L75.2701 71.5563L73.529 72.0636L71.7995 72.5709L71.223 70.8645L70.6465 69.1465L72.9525 70.3456Z" fill="white"/>
<path d="M93.545 33.8867C87.9128 37.0037 83.3247 41.7121 80.3545 47.4231L112.028 29.8627C105.605 29.3545 99.1752 30.7544 93.545 33.8867Z" fill="#705A52"/>
<path d="M99.0674 43.8259C93.4455 46.947 87.0301 48.3464 80.6191 47.85L112.269 30.2896C109.298 36.0037 104.705 40.7129 99.0674 43.8259Z" fill="#705A52"/>
<path d="M72.385 23.4984C72.3857 31.8563 74.8567 40.0276 79.4876 46.9853L79.4184 0C74.8054 6.96663 72.3581 15.143 72.385 23.4984Z" fill="#705A52"/>
<path d="M87.0186 23.5445C87.042 31.8977 84.5994 40.0721 79.9967 47.0429L79.916 0.0576172C84.5469 7.01534 87.0179 15.1866 87.0186 23.5445Z" fill="#705A52"/>
</svg>
