<svg width="100" height="100" viewBox="0 0 100 100" fill="none" xmlns="http://www.w3.org/2000/svg">
<path d="M35.0354 99.9948C44.7976 99.9948 52.7114 92.0869 52.7114 82.3321C52.7114 72.5773 44.7976 64.6694 35.0354 64.6694C25.2732 64.6694 17.3594 72.5773 17.3594 82.3321C17.3594 92.0869 25.2732 99.9948 35.0354 99.9948Z" fill="#EFC0A0"/>
<path d="M56.0412 68.4762C65.8034 68.4762 73.7172 60.5684 73.7172 50.8135C73.7172 41.0587 65.8034 33.1509 56.0412 33.1509C46.279 33.1509 38.3652 41.0587 38.3652 50.8135C38.3652 60.5684 46.279 68.4762 56.0412 68.4762Z" fill="#EFE6CB"/>
<path d="M17.676 66.2194C27.4382 66.2194 35.352 58.3115 35.352 48.5567C35.352 38.8019 27.4382 30.894 17.676 30.894C7.91381 30.894 0 38.8019 0 48.5567C0 58.3115 7.91381 66.2194 17.676 66.2194Z" fill="#C6DBC3"/>
<path d="M46.7845 38.3738C44.5746 38.8971 41.5647 36.8339 45.3679 28.7075C45.3679 28.7009 52.221 37.0872 46.7845 38.3738Z" fill="#705A52"/>
<path d="M51.9681 43.6404C49.7582 44.1637 46.7483 42.1038 50.5515 33.9741C50.5515 33.9675 57.4046 42.3538 51.9681 43.6404Z" fill="#705A52"/>
<path d="M57.4083 47.6136C55.2017 48.1369 52.1918 46.0736 55.995 37.9473C55.9983 37.9406 62.8481 46.3303 57.4083 47.6136Z" fill="#705A52"/>
<path d="M62.5013 52.3567C60.2914 52.8801 57.2815 50.8168 61.0847 42.6904C61.0847 42.6804 67.9378 51.0668 62.5013 52.3567Z" fill="#705A52"/>
<path d="M43.1087 33.4973C42.1087 35.5339 38.5922 36.5338 34.749 28.4175C34.749 28.4175 45.5819 28.4908 43.1087 33.4973Z" fill="#705A52"/>
<path d="M47.7449 37.504C47.6982 39.7706 44.9483 42.1705 38.0186 36.4541C38.0186 36.4541 47.8548 31.9209 47.7449 37.504Z" fill="#705A52"/>
<path d="M53.7414 42.1368C53.6947 44.4067 50.9448 46.8033 44.0117 41.0869C43.9984 41.0869 53.8514 36.5537 53.7414 42.1368Z" fill="#705A52"/>
<path d="M58.2214 46.8234C58.1781 49.0933 55.4282 51.4898 48.4951 45.7734C48.4951 45.7734 58.3314 41.2402 58.2214 46.8234Z" fill="#705A52"/>
<path d="M62.8673 51.8066C62.8207 54.0766 60.0708 56.4731 53.1377 50.76C53.1377 50.76 62.9773 46.2235 62.8673 51.8066Z" fill="#705A52"/>
<path d="M72.997 74.9726C73.6937 62.4597 63.1074 52.8301 63.1074 52.8301" stroke="#705A52" stroke-width="0.92" stroke-miterlimit="10"/>
<path d="M73.0434 75.0524C58.5973 52.7199 39.1113 51.9199 39.1113 51.9199C39.1113 51.9199 55.1341 54.0832 72.6734 74.9757" fill="#705A52"/>
<path d="M73.0309 74.9955C59.3314 57.9095 43.332 58.8661 43.332 58.8661C43.332 58.8661 56.6349 59.3061 72.7376 74.9522" fill="#705A52"/>
<path d="M10.8257 18.9012C10.7734 18.925 10.7165 18.9373 10.6591 18.9373C10.6016 18.9373 10.5447 18.925 10.4924 18.9012C10.3854 18.8549 10.3005 18.7689 10.2557 18.6612L5.95923 8.5516C5.93589 8.49914 5.92383 8.44236 5.92383 8.38494C5.92383 8.32752 5.93589 8.27075 5.95923 8.21828C6.0056 8.11676 6.0891 8.03684 6.19256 7.99496C6.29743 7.94809 6.4155 7.93982 6.52588 7.97163C6.58041 7.992 6.62984 8.02403 6.67072 8.06548C6.71159 8.10693 6.74293 8.1568 6.76253 8.21162L7.28251 9.43824C7.37826 8.8267 7.60572 8.24327 7.94916 7.7283C8.3602 7.10812 8.95444 6.63156 9.64909 6.36502C10.3991 6.03043 11.236 5.94289 12.039 6.11503C12.815 6.27676 13.5299 6.65328 14.1023 7.20166C14.1383 6.3378 14.4218 5.50249 14.9189 4.79508C15.3541 4.18274 15.9474 3.70004 16.6355 3.39847C17.2967 3.11963 18.0198 3.02055 18.7316 3.11128C19.4434 3.20201 20.1186 3.47933 20.6887 3.91511C21.3638 4.44578 21.8841 5.14797 22.1953 5.94837L24.9485 12.4215C24.9895 12.5288 24.9895 12.6475 24.9485 12.7548C24.9283 12.8124 24.8957 12.8649 24.8531 12.9087C24.8105 12.9524 24.7589 12.9863 24.7019 13.0081C24.6497 13.0327 24.5928 13.0455 24.5352 13.0455C24.4776 13.0455 24.4206 13.0327 24.3685 13.0081C24.3152 12.9856 24.2669 12.9528 24.2263 12.9117C24.1857 12.8705 24.1536 12.8217 24.1319 12.7681L21.3786 6.28836C21.1292 5.62876 20.701 5.05166 20.142 4.62175C19.6673 4.27329 19.108 4.05809 18.5221 3.99844C17.9878 3.9339 17.4458 4.00853 16.9488 4.2151C16.4207 4.43697 15.9607 4.79462 15.6155 5.25173C15.2575 5.72683 15.0196 6.28146 14.9222 6.86834C14.8216 7.50768 14.9109 8.16249 15.1789 8.7516L17.9988 15.3847C18.0285 15.4388 18.0441 15.4996 18.0441 15.5613C18.0441 15.6231 18.0285 15.6839 17.9988 15.738C17.9424 15.8365 17.8543 15.9129 17.7488 15.9547C17.6527 15.995 17.546 16.002 17.4455 15.9747C17.3854 15.9584 17.3304 15.9273 17.2855 15.8842C17.2407 15.8411 17.2074 15.7874 17.1888 15.728L14.3922 9.11825C14.1558 8.53854 13.7748 8.02905 13.2856 7.63831C12.83 7.27788 12.2915 7.03724 11.719 6.93833C11.148 6.84532 10.5623 6.9194 10.0324 7.15166C9.50566 7.37583 9.04622 7.73305 8.69913 8.18828C8.32774 8.66888 8.08664 9.23718 7.99915 9.83822C7.90853 10.5201 8.01373 11.2138 8.30247 11.8381L11.0657 18.3079C11.1067 18.4152 11.1067 18.5339 11.0657 18.6412C11.0466 18.6992 11.0153 18.7524 10.9739 18.7973C10.9325 18.8421 10.882 18.8776 10.8257 18.9012Z" fill="#705A52"/>
<path d="M27.6324 18.8279C27.5739 18.838 27.5138 18.8355 27.4564 18.8206C27.3989 18.8056 27.3452 18.7786 27.2991 18.7412C27.2543 18.7075 27.217 18.665 27.1895 18.6162C27.162 18.5675 27.1448 18.5136 27.1391 18.4579C27.1201 18.3446 27.1364 18.2283 27.1857 18.1246C27.2125 18.0753 27.2513 18.0336 27.2985 18.0033C27.3457 17.973 27.3998 17.9551 27.4557 17.9512C27.9091 17.9027 28.326 17.6805 28.619 17.3313C28.967 16.9069 29.2409 16.4269 29.429 15.9113C29.6603 15.3082 29.8507 14.6901 29.999 14.0614C30.1523 13.4114 30.299 12.7714 30.4423 12.1481L25.0525 1.63853C25.0251 1.59612 25.0069 1.54842 24.9992 1.49853C24.9847 1.42355 24.9965 1.34589 25.0325 1.27854C25.0714 1.21002 25.1249 1.15086 25.1892 1.10521C25.2523 1.05356 25.3264 1.01707 25.4058 0.99855C25.494 0.990113 25.5829 1.00626 25.6625 1.04522C25.7034 1.06019 25.7406 1.08412 25.7711 1.11526C25.8017 1.14639 25.8249 1.18396 25.8391 1.22521L30.7123 10.7448L33.0422 0.331909C33.0652 0.24677 33.1127 0.170271 33.1788 0.111917C33.243 0.0559302 33.3215 0.0189858 33.4055 0.00525458C33.484 -0.00570298 33.564 0.00229747 33.6388 0.028587C33.7077 0.0517757 33.7695 0.0918921 33.8188 0.145249C33.8702 0.210437 33.9015 0.289208 33.9088 0.371907C33.9215 0.422228 33.9215 0.474914 33.9088 0.525235L31.3056 12.0381C31.1689 12.6781 31.0023 13.3714 30.8123 14.1381C30.6287 14.8743 30.3948 15.5971 30.1123 16.3013C29.8681 16.928 29.5224 17.5102 29.089 18.0246C28.7224 18.4667 28.202 18.7537 27.6324 18.8279Z" fill="#705A52"/>
<path d="M37.4624 11.8714C37.4055 11.8672 37.3502 11.8504 37.3006 11.8222C37.251 11.7939 37.2083 11.7549 37.1757 11.7081C37.1378 11.6619 37.1094 11.6087 37.0922 11.5515C37.0751 11.4943 37.0695 11.4342 37.0757 11.3748L37.999 0.451846C37.9999 0.393312 38.0138 0.335706 38.0398 0.283231C38.0657 0.230755 38.103 0.184734 38.149 0.148525C38.2371 0.0802728 38.3483 0.0491692 38.459 0.0618612C38.5212 0.0614735 38.5827 0.0736783 38.64 0.0977391C38.6973 0.1218 38.7491 0.157218 38.7923 0.201856C38.8328 0.246426 38.8628 0.299498 38.8801 0.357176C38.8974 0.414855 38.9016 0.475677 38.8923 0.535177L38.779 1.86846C39.1456 1.37175 39.6152 0.960142 40.1556 0.661838C40.7995 0.302456 41.5389 0.151096 42.2722 0.228522C43.0654 0.289288 43.8265 0.567207 44.4721 1.03182C45.1132 1.48512 45.631 2.09117 45.9787 2.79509C46.3304 3.51241 46.4769 4.31297 46.4021 5.10834L45.8154 12.1081C45.8152 12.1727 45.8 12.2364 45.7711 12.2942C45.7422 12.352 45.7003 12.4024 45.6488 12.4414C45.5519 12.5099 45.4334 12.5408 45.3154 12.5281C45.2095 12.5183 45.1109 12.4696 45.0388 12.3914C44.9969 12.3474 44.9653 12.2947 44.9463 12.2371C44.9273 12.1795 44.9213 12.1183 44.9288 12.0581L45.5154 5.05834C45.5691 4.44249 45.4539 3.82365 45.1821 3.26841C44.9124 2.68623 44.5065 2.17749 43.9988 1.78513C43.5012 1.39378 42.8972 1.16147 42.2656 1.11849C41.6935 1.07335 41.1194 1.17668 40.5989 1.41848C40.045 1.66886 39.565 2.05808 39.2057 2.54843C38.8058 3.10844 38.5745 3.77116 38.539 4.45836L37.9524 11.4581C37.9425 11.5753 37.8876 11.684 37.7991 11.7614C37.7541 11.8028 37.7008 11.834 37.6427 11.853C37.5846 11.872 37.5231 11.8783 37.4624 11.8714Z" fill="#705A52"/>
<path d="M52.6017 14.6149C51.8476 14.3794 51.1759 13.9343 50.6651 13.3316C50.1523 12.7338 49.7991 12.016 49.6385 11.245C49.4712 10.4817 49.5115 9.68751 49.7552 8.94507L51.9317 2.25866C51.9498 2.20254 51.9792 2.15076 52.0182 2.10659C52.0572 2.06242 52.1049 2.02681 52.1584 2.002C52.261 1.94807 52.3805 1.93611 52.4917 1.96867C52.5458 1.98642 52.5956 2.01553 52.6375 2.05404C52.6795 2.09256 52.7127 2.13959 52.7351 2.19199C52.7829 2.29675 52.79 2.41558 52.7551 2.52531L50.5818 9.20839C50.3886 9.79589 50.3575 10.4246 50.4918 11.0283C50.6205 11.6491 50.8986 12.2291 51.3018 12.7183C51.7079 13.2207 52.2544 13.5909 52.8717 13.7816C53.4782 13.9872 54.1315 14.0115 54.7516 13.8515C55.3626 13.6937 55.925 13.3867 56.3882 12.9582C56.8508 12.5428 57.1958 12.0128 57.3882 11.4216L59.5715 4.7119C59.5892 4.65778 59.6183 4.60807 59.6568 4.56611C59.6953 4.52414 59.7424 4.49089 59.7948 4.46857C59.8995 4.42071 60.0184 4.41358 60.1281 4.44857C60.1846 4.46349 60.2372 4.49062 60.2821 4.52805C60.3271 4.56548 60.3632 4.61231 60.3881 4.66523C60.4318 4.77204 60.4318 4.89174 60.3881 4.99855L58.2315 11.6916C57.9906 12.44 57.5532 13.11 56.9649 13.6316C56.3802 14.1542 55.6745 14.5231 54.9116 14.7048C54.1488 14.8953 53.3474 14.8641 52.6017 14.6149Z" fill="#705A52"/>
<path d="M62.5914 18.9245C61.5447 18.3579 60.8781 17.6823 60.5914 16.8979C60.3048 16.1135 60.4515 15.1847 61.0314 14.1114L67.5778 2.03516C67.6026 1.98101 67.6401 1.93365 67.6871 1.89709C67.7341 1.86053 67.7893 1.83585 67.8478 1.82516C67.9512 1.80053 68.0599 1.81353 68.1545 1.86183C68.2557 1.91676 68.3346 2.00513 68.3778 2.11182C68.3986 2.16583 68.407 2.22382 68.4024 2.28151C68.3978 2.3392 68.3803 2.39512 68.3511 2.44514L65.7879 7.17163L68.7711 8.7849C68.8206 8.81088 68.8642 8.84679 68.8992 8.89038C68.9342 8.93396 68.9598 8.98429 68.9745 9.03822C69.0043 9.15071 68.9888 9.27043 68.9311 9.37154C68.9046 9.42114 68.8684 9.46499 68.8249 9.50057C68.7813 9.53615 68.7311 9.56276 68.6772 9.57887C68.6233 9.59498 68.5667 9.60027 68.5108 9.59444C68.4548 9.5886 68.4006 9.57175 68.3511 9.54487L65.3679 7.92826L61.8014 14.508C61.3447 15.348 61.2081 16.038 61.3914 16.5846C61.5747 17.1312 62.1114 17.6646 62.998 18.1512L63.508 18.4279C63.6068 18.4788 63.6821 18.566 63.718 18.6712C63.7359 18.7263 63.7416 18.7847 63.7347 18.8422C63.7277 18.8998 63.7084 18.9552 63.678 19.0045C63.6234 19.1083 63.5299 19.1862 63.418 19.2212C63.3644 19.2425 63.3067 19.2518 63.2491 19.2483C63.1915 19.2448 63.1354 19.2288 63.0847 19.2012L62.5914 18.9245Z" fill="#705A52"/>
<path d="M65.3607 20.7012C65.3149 20.667 65.2769 20.6235 65.2493 20.5735C65.2217 20.5235 65.2052 20.4681 65.2007 20.4112C65.1924 20.3526 65.1958 20.293 65.2107 20.2358C65.2255 20.1786 65.2516 20.1249 65.2874 20.0778L71.8172 11.2548C71.8494 11.2065 71.8917 11.1657 71.9412 11.1352C71.9907 11.1047 72.0461 11.0852 72.1038 11.0782C72.2149 11.0675 72.3258 11.0997 72.4138 11.1682C72.5122 11.235 72.5823 11.336 72.6105 11.4515C72.622 11.51 72.6202 11.5704 72.6052 11.6281C72.5902 11.6858 72.5624 11.7394 72.5238 11.7848L71.7305 12.8548C72.1075 12.7021 72.5052 12.6066 72.9105 12.5715C73.3587 12.5353 73.8098 12.577 74.2437 12.6948C74.7585 12.8341 75.2409 13.073 75.6637 13.3981L76.4103 13.9514C76.4563 13.9836 76.495 14.0252 76.5237 14.0735C76.5525 14.1218 76.5706 14.1756 76.577 14.2314C76.5844 14.2904 76.5799 14.3502 76.5639 14.4075C76.5479 14.4647 76.5206 14.5182 76.4837 14.5647C76.416 14.6553 76.3151 14.7152 76.2033 14.7315C76.0914 14.7477 75.9777 14.7189 75.887 14.6514L75.1404 14.1014C74.6675 13.7444 74.1108 13.5149 73.5238 13.4348C72.9178 13.3545 72.3014 13.4314 71.7338 13.6581C71.1011 13.9279 70.5571 14.3703 70.1639 14.9347L65.9974 20.6078C65.927 20.7018 65.8232 20.7651 65.7074 20.7845C65.647 20.7969 65.5847 20.7958 65.5248 20.7814C65.4649 20.767 65.4089 20.7396 65.3607 20.7012Z" fill="#705A52"/>
<path d="M74.0209 28.5877C73.3253 27.8728 72.804 27.007 72.4976 26.0578C72.2262 25.2114 72.1882 24.3074 72.3876 23.4412C72.604 22.5632 73.0803 21.7709 73.7543 21.168L75.6808 19.368C76.2898 18.7933 77.0532 18.4087 77.8774 18.2614C78.7146 18.1049 79.5774 18.1553 80.3907 18.4081C81.6043 18.7766 82.6309 19.5956 83.26 20.6969C83.889 21.7983 84.0729 23.0986 83.7739 24.3312C83.5586 25.146 83.1103 25.8804 82.4839 26.4444C82.1439 26.8186 81.6971 27.0792 81.204 27.1911C80.8655 27.2381 80.5218 27.1534 80.244 26.9544C79.957 26.7479 79.6913 26.5135 79.4507 26.2544L75.6642 22.2279L75.1142 22.7446C74.7938 23.0212 74.5427 23.3692 74.3812 23.7606C74.2197 24.1519 74.1522 24.5757 74.1842 24.9978C74.275 25.9261 74.6905 26.7925 75.3575 27.4444C75.6874 27.8291 76.0953 28.1392 76.5541 28.3543C76.8685 28.4929 77.1941 28.6044 77.5274 28.6877C77.7538 28.7237 77.964 28.827 78.1308 28.9843C78.2524 29.1033 78.324 29.2643 78.3307 29.4343C78.3373 29.5976 78.3077 29.7604 78.2441 29.911C78.191 30.0358 78.114 30.149 78.0174 30.2443C77.8915 30.3285 77.7495 30.3859 77.6004 30.4128C77.4513 30.4398 77.2983 30.4357 77.1508 30.4009C76.6353 30.3262 76.138 30.1567 75.6842 29.901C75.0603 29.5591 74.4981 29.1152 74.0209 28.5877ZM76.6875 21.2546L79.8774 24.6645C80.0642 24.9104 80.3175 25.0977 80.6073 25.2045C80.7241 25.2071 80.8399 25.1833 80.9461 25.1348C81.0523 25.0863 81.1462 25.0144 81.2206 24.9245C81.583 24.5924 81.8509 24.1704 81.9973 23.7012C82.1429 23.2304 82.1659 22.7301 82.0639 22.2479C81.9516 21.7359 81.6975 21.2657 81.3306 20.8913C80.9922 20.5226 80.5638 20.2481 80.0873 20.0947C79.6282 19.9454 79.1392 19.9122 78.6641 19.998C78.18 20.0889 77.7335 20.3209 77.3808 20.6646L76.6875 21.2546Z" fill="#705A52"/>
<path d="M79.1901 35.3838C78.7302 34.643 78.5494 33.7626 78.6801 32.9005C78.8134 32.0572 79.3701 31.3439 80.3467 30.7673C80.6708 30.5487 81.0354 30.3975 81.419 30.3224C81.8026 30.2474 82.1974 30.2502 82.5799 30.3306C83.3426 30.5441 84.0247 30.9791 84.5399 31.5806C85.224 32.3416 85.8241 33.1742 86.3298 34.0638L86.9431 35.1038L87.3964 34.8371C87.8309 34.5768 88.213 34.2377 88.523 33.8372C88.8348 33.4542 89.0354 32.993 89.103 32.5039C89.1505 31.9277 89.0025 31.3524 88.683 30.8706C88.4573 30.4562 88.167 30.0804 87.8231 29.7573C87.6011 29.5582 87.3574 29.3849 87.0964 29.2407C86.9229 29.1622 86.7742 29.0377 86.6665 28.8807C86.6078 28.7786 86.5786 28.6622 86.5822 28.5445C86.5857 28.4268 86.6218 28.3124 86.6865 28.214C86.8051 28.0015 86.9746 27.8217 87.1798 27.6907C87.3276 27.6269 87.4897 27.6035 87.6496 27.6228C87.8095 27.6421 87.9614 27.7035 88.0897 27.8007C88.5185 28.0501 88.9082 28.3612 89.2464 28.724C89.63 29.1175 89.9656 29.5549 90.2463 30.0273C90.7881 30.8527 91.0734 31.8199 91.0663 32.8072C91.0303 33.6115 90.7553 34.3867 90.2763 35.0338C89.789 35.6809 89.177 36.2238 88.4764 36.6304L82.9299 39.8869C82.838 39.9375 82.7355 39.9657 82.6307 39.9691C82.5258 39.9726 82.4217 39.9513 82.3266 39.9069C82.0835 39.8011 81.8828 39.6168 81.7566 39.3836C81.6276 39.1745 81.5757 38.9269 81.61 38.6836C81.6193 38.5807 81.6525 38.4813 81.7069 38.3934C81.7613 38.3054 81.8354 38.2314 81.9233 38.177L82.7899 37.6703C82.1043 37.5414 81.4401 37.317 80.8167 37.0037C80.1278 36.6343 79.5623 36.0711 79.1901 35.3838ZM80.9733 35.0938C81.2316 35.5227 81.5999 35.8749 82.04 36.1137C82.4879 36.3694 82.9817 36.5347 83.4932 36.6004C83.9126 36.6769 84.3454 36.6112 84.7232 36.4137L85.8498 35.7471L85.4032 34.9971C85.0672 34.4174 84.6931 33.8606 84.2832 33.3305C83.9611 32.8898 83.5367 32.5341 83.0466 32.2939C82.8127 32.2021 82.5598 32.1696 82.3103 32.1992C82.0608 32.2289 81.8225 32.3198 81.6166 32.4639C81.3771 32.5785 81.1668 32.7461 81.0017 32.954C80.8365 33.1618 80.7208 33.4046 80.6633 33.6638C80.5928 34.1622 80.7028 34.6694 80.9733 35.0938Z" fill="#705A52"/>
<path d="M84.5664 46.3668C84.102 45.089 84.032 44.0146 84.3564 43.1435C84.6808 42.2725 85.4586 41.6058 86.6896 41.1436L98.8558 36.7271C98.959 36.6918 99.0698 36.6849 99.1766 36.7071C99.2833 36.7294 99.3821 36.7801 99.4625 36.8538C99.6584 37.0075 99.8074 37.213 99.8925 37.4471C99.9817 37.6878 100.002 37.9486 99.9525 38.2004C99.9382 38.309 99.8947 38.4116 99.8266 38.4973C99.7585 38.5831 99.6684 38.6487 99.5658 38.687L95.0493 40.3303L96.1293 43.3302C96.1641 43.4164 96.1754 43.5103 96.1619 43.6023C96.1484 43.6942 96.1107 43.781 96.0526 43.8535C95.9279 44.015 95.7587 44.1366 95.566 44.2035C95.3788 44.2753 95.1745 44.2893 94.9793 44.2435C94.8897 44.223 94.8071 44.1792 94.7399 44.1166C94.6726 44.0539 94.6229 43.9747 94.596 43.8868L93.5127 40.9136L87.4196 43.1269C86.753 43.3702 86.3196 43.6902 86.1497 44.0802C85.9797 44.4702 86.0263 45.0301 86.2897 45.7468L86.5563 46.4767C86.6086 46.5929 86.6331 46.7197 86.6279 46.8469C86.6227 46.9742 86.5879 47.0986 86.5263 47.2101C86.4122 47.4095 86.2299 47.561 86.013 47.6367C85.7973 47.713 85.562 47.713 85.3463 47.6367C85.2257 47.593 85.1171 47.5213 85.0296 47.4274C84.9421 47.3335 84.8782 47.2202 84.843 47.0967L84.5664 46.3668Z" fill="#705A52"/>
<path d="M86.0905 49.7936C86.0853 49.7365 86.0925 49.679 86.1114 49.625C86.1304 49.5709 86.1608 49.5216 86.2005 49.4803C86.2789 49.3931 86.3871 49.3384 86.5038 49.3269L97.4401 48.327C97.4993 48.318 97.5598 48.3219 97.6174 48.3386C97.6749 48.3553 97.7282 48.3843 97.7734 48.4236C97.8538 48.4997 97.9026 48.6032 97.91 48.7136C97.9267 48.8313 97.8968 48.9509 97.8267 49.0469C97.7909 49.0928 97.7455 49.1302 97.6937 49.1567C97.6418 49.1832 97.5849 49.1981 97.5267 49.2003L96.1934 49.3203C96.7465 49.593 97.2334 49.9832 97.6201 50.4636C98.0867 51.0438 98.3585 51.7565 98.3967 52.5001C98.4863 53.316 98.3135 54.1391 97.9034 54.8501C97.5098 55.5357 96.9326 56.0979 96.2368 56.4733C97.0489 56.773 97.7572 57.3008 98.2767 57.9933C98.7267 58.5929 99.0045 59.304 99.08 60.0499C99.1476 60.7461 99.0327 61.448 98.7467 62.0864C98.4426 62.7575 97.9622 63.3334 97.3567 63.753C96.6437 64.2325 95.8147 64.5111 94.9568 64.5597L87.9571 65.1897C87.8979 65.1976 87.8376 65.1931 87.7803 65.1765C87.7229 65.1598 87.6696 65.1314 87.6238 65.093C87.5743 65.0566 87.5336 65.0095 87.5048 64.9553C87.4759 64.9011 87.4597 64.8411 87.4571 64.7797C87.4511 64.7231 87.4578 64.6658 87.4768 64.6122C87.4959 64.5585 87.5267 64.5098 87.5671 64.4697C87.6046 64.4257 87.6504 64.3895 87.7019 64.3632C87.7533 64.3369 87.8095 64.321 87.8671 64.3164L94.8668 63.6864C95.568 63.6489 96.2452 63.4182 96.8234 63.0197C97.3038 62.682 97.6848 62.2216 97.9267 61.6865C98.1508 61.1987 98.246 60.6616 98.2034 60.1265C98.151 59.5588 97.9498 59.015 97.6201 58.5499C97.2744 58.0643 96.8171 57.6688 96.2868 57.3966C95.709 57.1065 95.0593 56.9907 94.4169 57.0633L87.2338 57.7099C87.1738 57.7194 87.1124 57.7146 87.0545 57.6961C86.9966 57.6776 86.9439 57.6458 86.9005 57.6033C86.827 57.5183 86.7826 57.412 86.7738 57.3C86.7658 57.1958 86.7915 57.0918 86.8471 57.0033C86.8814 56.9517 86.928 56.9095 86.9827 56.8804C87.0374 56.8513 87.0985 56.8362 87.1605 56.8366L94.3302 56.19C94.9555 56.1444 95.5584 55.9377 96.0801 55.59C96.5631 55.2671 96.9573 54.8281 97.2267 54.3134C97.4904 53.7999 97.6004 53.2212 97.5434 52.6468C97.4863 52.0812 97.2855 51.5396 96.9601 51.0735C96.5956 50.5368 96.0888 50.1121 95.4966 49.8472C94.9043 49.5823 94.25 49.4875 93.6069 49.5736L86.6071 50.2036C86.4877 50.2154 86.3684 50.1808 86.2738 50.1069C86.2226 50.0709 86.1797 50.0243 86.1481 49.9702C86.1164 49.9161 86.0968 49.8559 86.0905 49.7936Z" fill="#705A52"/>
<path d="M85.663 72.3824C85.8256 71.4891 86.198 70.6471 86.7496 69.9259C87.2468 69.2795 87.9105 68.7805 88.6695 68.4826C89.4635 68.1865 90.3269 68.1297 91.1528 68.3193L94.2293 68.9426C95.0035 69.0924 95.7198 69.4574 96.2959 69.9959C96.8705 70.5205 97.3048 71.1805 97.5592 71.9158C97.8115 72.6501 97.8642 73.4382 97.7119 74.1996C97.5596 74.9609 97.2079 75.6682 96.6926 76.249C96.1785 76.8311 95.5247 77.2727 94.7927 77.5322C94.0211 77.8004 93.1902 77.8489 92.3927 77.6722C91.9388 77.618 91.5126 77.4248 91.1728 77.1189C90.9559 76.8894 90.8364 76.5847 90.8395 76.269C90.8488 75.9328 90.8878 75.5982 90.9561 75.269L92.1394 69.4359L90.9795 69.2026C90.4811 69.0793 89.961 69.0736 89.46 69.1858C88.9591 69.2981 88.4911 69.5252 88.0929 69.8492C87.2543 70.5595 86.6955 71.5448 86.5163 72.6291C86.3799 73.1607 86.3594 73.7155 86.4563 74.2557C86.5261 74.5779 86.6382 74.8895 86.7896 75.1823C86.9003 75.3457 86.951 75.5424 86.933 75.739C86.9164 75.8191 86.8743 75.8916 86.813 75.9456C86.7531 75.9986 86.6842 76.0404 86.6096 76.069C86.5431 76.0957 86.4705 76.1038 86.3996 76.0923C86.2496 76.0623 86.0897 75.889 85.9163 75.569C85.7136 75.166 85.5892 74.7283 85.5497 74.279C85.4826 73.6449 85.5209 73.0041 85.663 72.3824ZM92.9961 69.5892L91.8761 75.1257C91.7589 75.5249 91.7349 75.9457 91.8061 76.3556C91.8839 76.5645 92.1061 76.7078 92.4727 76.7856C93.0859 76.9045 93.7186 76.8739 94.3174 76.6963C94.9162 76.5188 95.4634 76.1995 95.9126 75.7656C96.3887 75.2947 96.7077 74.6882 96.8259 74.029C96.9612 73.4016 96.9161 72.7487 96.6959 72.1458C96.4865 71.56 96.1349 71.0355 95.6726 70.6192C95.2135 70.2041 94.65 69.9218 94.0427 69.8025L92.9961 69.5892Z" fill="#705A52"/>
<path d="M84.1933 78.6087C84.2163 78.556 84.2506 78.5089 84.2938 78.4709C84.337 78.4329 84.388 78.4048 84.4433 78.3887C84.5506 78.3477 84.6693 78.3477 84.7766 78.3887L94.7762 82.8885C94.8308 82.909 94.8801 82.9416 94.9205 82.9837C94.9609 83.0258 94.9913 83.0764 95.0095 83.1318C95.0296 83.1857 95.0381 83.2432 95.0347 83.3006C95.0312 83.358 95.0159 83.4141 94.9895 83.4652C94.9461 83.5769 94.8614 83.6676 94.7529 83.7185C94.7006 83.7425 94.6437 83.7549 94.5862 83.7549C94.5287 83.7549 94.4718 83.7425 94.4195 83.7185L93.2029 83.1752C93.5519 83.684 93.7851 84.2631 93.8862 84.8718C94.0038 85.6067 93.8872 86.36 93.5529 87.025C93.232 87.7538 92.7165 88.38 92.063 88.835C91.4299 89.2802 90.6975 89.564 89.9297 89.6616C89.1327 89.7583 88.3245 89.6302 87.5965 89.2916L81.1767 86.4084C81.1174 86.3864 81.0638 86.3513 81.0199 86.3057C80.9761 86.2601 80.9431 86.2052 80.9234 86.1451C80.8935 86.0342 80.9029 85.9164 80.9501 85.8117C80.9968 85.7156 81.0759 85.6389 81.1734 85.5951C81.2296 85.5664 81.2919 85.5514 81.355 85.5514C81.4182 85.5514 81.4804 85.5664 81.5367 85.5951L87.9565 88.4783C88.5217 88.7311 89.145 88.8256 89.7597 88.7516C90.3897 88.6824 90.9953 88.4691 91.5297 88.1283C92.0639 87.7878 92.4859 87.2974 92.7429 86.7184C92.9746 86.1952 93.0687 85.6215 93.0163 85.0518C92.9642 84.4459 92.7564 83.8637 92.413 83.3618C92.0161 82.7995 91.4668 82.3623 90.8297 82.1019L84.4133 79.2187C84.3068 79.1699 84.2224 79.0831 84.1766 78.9753C84.1507 78.9171 84.1387 78.8537 84.1416 78.79C84.1445 78.7264 84.1622 78.6643 84.1933 78.6087Z" fill="#705A52"/>
<path d="M77.0937 91.5552C77.7603 90.5775 78.5047 89.9875 79.3269 89.7853C80.1491 89.5831 81.058 89.8286 82.0535 90.5219L93.3631 98.3283C93.4136 98.3593 93.4562 98.4016 93.4874 98.452C93.5187 98.5023 93.5377 98.5593 93.5431 98.6183C93.5563 98.7245 93.5315 98.8319 93.4731 98.9216C93.4087 99.0159 93.3131 99.0844 93.2031 99.1149C93.1463 99.1297 93.0869 99.1317 93.0293 99.1207C92.9717 99.1098 92.9172 99.0862 92.8697 99.0516L88.4399 95.9951L86.51 98.7816C86.4795 98.8287 86.4394 98.8688 86.3923 98.8993C86.3452 98.9297 86.2921 98.9498 86.2367 98.9583C86.1786 98.9677 86.1192 98.9655 86.062 98.9518C86.0047 98.9381 85.9508 98.9131 85.9033 98.8783C85.8564 98.8468 85.8165 98.806 85.7861 98.7584C85.7557 98.7108 85.7355 98.6574 85.7267 98.6016C85.7137 98.5445 85.713 98.4853 85.7245 98.4279C85.736 98.3704 85.7594 98.3161 85.7934 98.2683L87.7233 95.4817L81.5602 91.2286C80.7735 90.6864 80.1002 90.4753 79.5403 90.5953C78.9769 90.7153 78.407 91.1986 77.8237 92.0385L77.4903 92.5118C77.4303 92.6054 77.3356 92.6713 77.227 92.6952C77.1695 92.7085 77.1097 92.7089 77.0521 92.6962C76.9944 92.6835 76.9403 92.6581 76.8937 92.6219C76.7966 92.555 76.7287 92.4537 76.7037 92.3385C76.688 92.282 76.6852 92.2227 76.6956 92.165C76.706 92.1073 76.7293 92.0527 76.7637 92.0052L77.0937 91.5552Z" fill="#705A52"/>
<path d="M9.4467 80.6124L6.56348 75.4492L11.17 78.0258L15.7731 80.6024L11.1766 83.1956L6.58014 85.7888L9.4467 80.6124Z" fill="#705A52"/>
<path d="M35.8556 83.4494L31.8643 87.4575L36.033 91.6088L40.0243 87.6007L35.8556 83.4494Z" fill="#705A52"/>
<path d="M43.8238 76.9694L40.5957 80.6245L45.5824 85.0286L48.8105 81.3735L43.8238 76.9694Z" fill="#705A52"/>
<path d="M58.4541 80.5356V86.3354C62.7131 84.9516 66.7636 82.9937 70.4936 80.5156L58.4541 80.5356Z" fill="#705A52"/>
<path d="M58.1439 80.5356L15.9355 80.6023C22.0959 84.6516 29.0818 87.2764 36.3845 88.2854C43.6872 89.2945 51.123 88.6625 58.1506 86.4354L58.1439 80.5356Z" fill="#705A52"/>
<path d="M56.3206 83.3321L56.324 84.0987L55.954 83.7154L55.584 83.3321L55.9506 82.9487L56.3206 82.5654V83.3321Z" fill="white"/>
<path d="M34.155 83.3686V84.1352L33.785 83.7519L33.415 83.3686L33.785 82.9853L34.1517 82.5986L34.155 83.3686Z" fill="white"/>
<path d="M34.1556 85.2119L34.1589 85.9819L33.7889 85.5986L33.4189 85.2153L33.7856 84.8286L34.1556 84.4453V85.2119Z" fill="white"/>
<path d="M24.7292 81.5357V82.3056L24.3592 81.9223L23.9893 81.539L24.3592 81.1524L24.7292 80.769V81.5357Z" fill="white"/>
<path d="M24.7322 83.3819V84.1485L24.3622 83.7652L23.9922 83.3852L24.3622 82.9986L24.7288 82.6152L24.7322 83.3819Z" fill="white"/>
<path d="M27.8728 83.3789V84.1455L27.5028 83.7622L27.1328 83.3789L27.5028 82.9955L27.8728 82.6089V83.3789Z" fill="white"/>
<path d="M31.012 83.3721L31.0154 84.1387L30.6454 83.7554L30.2754 83.3721L30.642 82.9888L31.012 82.6055V83.3721Z" fill="white"/>
<path d="M31.0154 85.2188L31.0187 85.9854L30.6454 85.6021L30.2754 85.2188L30.6454 84.8355L31.0154 84.4521V85.2188Z" fill="white"/>
<path d="M34.155 83.3686V84.1352L33.785 83.7519L33.415 83.3686L33.785 82.9853L34.1517 82.5986L34.155 83.3686Z" fill="white"/>
<path d="M34.1556 85.2119L34.1589 85.9819L33.7889 85.5986L33.4189 85.2153L33.7856 84.8286L34.1556 84.4453V85.2119Z" fill="white"/>
<path d="M46.9021 83.3453V84.1152L46.5321 83.7319L46.1621 83.3486L46.5321 82.9653L46.8987 82.5786L46.9021 83.3453Z" fill="white"/>
<path d="M46.905 85.1919V85.9586L46.535 85.5786L46.165 85.1953L46.535 84.8086L46.9017 84.4253L46.905 85.1919Z" fill="white"/>
<path d="M37.4783 83.3619V84.1285L37.1083 83.7452L36.7383 83.3619L37.1083 82.9785L37.4783 82.5952V83.3619Z" fill="white"/>
<path d="M37.4822 85.2085V85.9752L37.1122 85.5919L36.7422 85.2085L37.1122 84.8252L37.4822 84.4419V85.2085Z" fill="white"/>
<path d="M40.6185 83.3588L40.6218 84.1255L40.2518 83.7422L39.8818 83.3588L40.2485 82.9755L40.6185 82.5889V83.3588Z" fill="white"/>
<path d="M40.6214 85.2022L40.6247 85.9722L40.2547 85.5888L39.8848 85.2055L40.2514 84.8189L40.6214 84.4355V85.2022Z" fill="white"/>
<path d="M43.7615 83.3521V84.1187L43.3915 83.7354L43.0215 83.3521L43.3915 82.9688L43.7581 82.5854L43.7615 83.3521Z" fill="white"/>
<path d="M43.762 85.1988L43.7654 85.9654L43.3954 85.5821L43.0254 85.1988L43.392 84.8155L43.762 84.4321V85.1988Z" fill="white"/>
<path d="M46.9021 83.3453V84.1152L46.5321 83.7319L46.1621 83.3486L46.5321 82.9653L46.8987 82.5786L46.9021 83.3453Z" fill="white"/>
<path d="M46.905 85.1919V85.9586L46.535 85.5786L46.165 85.1953L46.535 84.8086L46.9017 84.4253L46.905 85.1919Z" fill="white"/>
<path d="M50.0417 83.3418V84.1085L49.6717 83.7252L49.3018 83.3418L49.6717 82.9585L50.0417 82.5752V83.3418Z" fill="white"/>
<path d="M50.0447 85.1885V85.9552L49.6747 85.5718L49.3047 85.1885L49.6747 84.8052L50.0413 84.4219L50.0447 85.1885Z" fill="white"/>
<path d="M53.181 83.3355L53.1843 84.1055L52.811 83.7221L52.4443 83.3388L52.811 82.9555L53.181 82.5688V83.3355Z" fill="white"/>
<path d="M56.3245 85.1787L56.3279 85.9454L55.9579 85.5621L55.5879 85.1787L55.9545 84.7954L56.3245 84.4121V85.1787Z" fill="white"/>
<path d="M53.1843 85.1822V85.9488L52.8143 85.5655L52.4443 85.1822L52.8143 84.7988L53.1843 84.4155V85.1822Z" fill="white"/>
<path d="M54.6579 82.5953L54.6613 83.3619L54.2913 82.9786L53.918 82.5986L54.288 82.2119L54.6579 81.8286V82.5953Z" fill="white"/>
<path d="M54.6609 84.4419L54.6642 85.2086L54.2909 84.8253L53.9209 84.4419L54.2909 84.0586L54.6609 83.6753V84.4419Z" fill="white"/>
<path d="M32.4886 82.6319L32.4919 83.3985L32.1219 83.0152L31.752 82.6319L32.1186 82.2486L32.4886 81.8652V82.6319Z" fill="white"/>
<path d="M32.4915 84.4786L32.4949 85.2452L32.1249 84.8619L31.7549 84.4786L32.1215 84.0952L32.4915 83.7119V84.4786Z" fill="white"/>
<path d="M23.0691 82.6489V83.4155L22.6991 83.0322L22.3291 82.6489L22.6991 82.2656L23.0657 81.8789L23.0691 82.6489Z" fill="white"/>
<path d="M26.2087 82.6421V83.4088L25.8387 83.0254L25.4688 82.6421L25.8387 82.2588L26.2087 81.8755V82.6421Z" fill="white"/>
<path d="M29.3493 82.6386L29.3527 83.4053L28.9794 83.0219L28.6094 82.6386L28.9794 82.2553L29.3493 81.8687V82.6386Z" fill="white"/>
<path d="M29.3523 84.482V85.2486L28.9823 84.8686L28.6123 84.4853L28.9823 84.0986L29.3523 83.7153V84.482Z" fill="white"/>
<path d="M32.4886 82.6319L32.4919 83.3985L32.1219 83.0152L31.752 82.6319L32.1186 82.2486L32.4886 81.8652V82.6319Z" fill="white"/>
<path d="M32.4915 84.4786L32.4949 85.2452L32.1249 84.8619L31.7549 84.4786L32.1215 84.0952L32.4915 83.7119V84.4786Z" fill="white"/>
<path d="M45.238 82.6123V83.3789L44.868 82.9956L44.498 82.6123L44.868 82.2289L45.2347 81.8423L45.238 82.6123Z" fill="white"/>
<path d="M45.2386 84.4556L45.2419 85.2256L44.8719 84.8423L44.502 84.4589L44.8719 84.0756L45.2386 83.689V84.4556Z" fill="white"/>
<path d="M45.2415 86.3018L45.2449 87.0718L44.8749 86.6884L44.5049 86.3051L44.8715 85.9185L45.2415 85.5352V86.3018Z" fill="white"/>
<path d="M35.8152 82.6255V83.3922L35.4452 83.0122L35.0752 82.6289L35.4452 82.2422L35.8152 81.8589V82.6255Z" fill="white"/>
<path d="M35.8191 84.4722V85.2388L35.4491 84.8555L35.0791 84.4755L35.4491 84.0889L35.8157 83.7056L35.8191 84.4722Z" fill="white"/>
<path d="M35.822 86.3184V87.085L35.452 86.7017L35.082 86.3184L35.452 85.9351L35.8187 85.5518L35.822 86.3184Z" fill="white"/>
<path d="M38.9554 82.6221L38.9587 83.3887L38.5887 83.0054L38.2188 82.6221L38.5854 82.2388L38.9554 81.8555V82.6221Z" fill="white"/>
<path d="M38.9587 84.4687V85.2353L38.5887 84.852L38.2188 84.4687L38.5887 84.0854L38.9587 83.6987V84.4687Z" fill="white"/>
<path d="M38.9617 86.3121V87.082L38.5917 86.6987L38.2217 86.3154L38.5917 85.9321L38.9617 85.5454V86.3121Z" fill="white"/>
<path d="M42.095 82.6153L42.0984 83.3819L41.7284 82.9986L41.3584 82.6186L41.7251 82.232L42.095 81.8486V82.6153Z" fill="white"/>
<path d="M42.098 84.4619L42.1013 85.2286L41.7313 84.8453L41.3613 84.4619L41.728 84.0786L42.098 83.6953V84.4619Z" fill="white"/>
<path d="M42.1013 86.3086L42.1046 87.0753L41.7313 86.6919L41.3613 86.3086L41.7313 85.9253L42.1013 85.542V86.3086Z" fill="white"/>
<path d="M45.238 82.6123V83.3789L44.868 82.9956L44.498 82.6123L44.868 82.2289L45.2347 81.8423L45.238 82.6123Z" fill="white"/>
<path d="M45.2386 84.4556L45.2419 85.2256L44.8719 84.8423L44.502 84.4589L44.8719 84.0756L45.2386 83.689V84.4556Z" fill="white"/>
<path d="M45.2415 86.3018L45.2449 87.0718L44.8749 86.6884L44.5049 86.3051L44.8715 85.9185L45.2415 85.5352V86.3018Z" fill="white"/>
<path d="M48.3777 82.6055V83.3721L48.0077 82.9922L47.6377 82.6088L48.0077 82.2222L48.3743 81.8389L48.3777 82.6055Z" fill="white"/>
<path d="M48.3816 84.4522V85.2188L48.0116 84.8355L47.6416 84.4522L48.0116 84.0689L48.3782 83.6855L48.3816 84.4522Z" fill="white"/>
<path d="M48.3845 86.2989V87.0655L48.0145 86.6822L47.6445 86.2989L48.0145 85.9156L48.3812 85.5322L48.3845 86.2989Z" fill="white"/>
<path d="M51.5183 82.602V83.3686L51.1483 82.9853L50.7783 82.602L51.1483 82.2187L51.5183 81.832V82.602Z" fill="white"/>
<path d="M51.5212 84.4453V85.2153L51.1512 84.832L50.7812 84.4487L51.1512 84.0654L51.5179 83.6787L51.5212 84.4453Z" fill="white"/>
<path d="M51.5251 86.292V87.0587L51.1551 86.6787L50.7852 86.2954L51.1551 85.9087L51.5218 85.5254L51.5251 86.292Z" fill="white"/>
<path d="M64.0177 81.972C63.9393 81.972 63.8626 81.9488 63.7974 81.9052C63.7321 81.8616 63.6813 81.7996 63.6513 81.7272C63.6213 81.6547 63.6134 81.5749 63.6287 81.498C63.644 81.421 63.6818 81.3504 63.7373 81.2949C63.7927 81.2394 63.8634 81.2016 63.9404 81.1863C64.0173 81.171 64.0971 81.1789 64.1695 81.2089C64.242 81.2389 64.304 81.2898 64.3475 81.355C64.3911 81.4202 64.4144 81.4969 64.4144 81.5754C64.4144 81.6806 64.3726 81.7815 64.2982 81.8558C64.2238 81.9302 64.1229 81.972 64.0177 81.972Z" fill="white"/>
<path d="M64.0176 81.279C64.0962 81.279 64.1717 81.3103 64.2273 81.3659C64.283 81.4215 64.3142 81.497 64.3142 81.5757C64.3146 81.6142 64.3071 81.6524 64.2922 81.6879C64.2773 81.7235 64.2553 81.7556 64.2276 81.7823C64.1867 81.8242 64.1343 81.8529 64.077 81.8648C64.0198 81.8766 63.9602 81.8711 63.9061 81.8489C63.852 81.8267 63.8058 81.7888 63.7734 81.7401C63.741 81.6914 63.7239 81.6341 63.7242 81.5757C63.7242 81.4976 63.755 81.4226 63.8099 81.3671C63.8649 81.3115 63.9395 81.2799 64.0176 81.279ZM64.0176 81.0757C63.885 81.0757 63.7578 81.1284 63.664 81.2221C63.5703 81.3159 63.5176 81.4431 63.5176 81.5757C63.5176 81.7083 63.5703 81.8354 63.664 81.9292C63.7578 82.023 63.885 82.0756 64.0176 82.0756C64.1502 82.0756 64.2773 82.023 64.3711 81.9292C64.4649 81.8354 64.5175 81.7083 64.5175 81.5757C64.5175 81.4431 64.4649 81.3159 64.3711 81.2221C64.2773 81.1284 64.1502 81.0757 64.0176 81.0757Z" fill="white"/>
<path d="M23.9988 47.9633C26.6154 42.2235 24.1322 38.1837 22.7256 37.3704C21.2523 36.687 16.5158 36.9737 13.3126 42.4068C4.60958 57.1996 4.25293 72.8623 4.25293 72.8623C4.25293 72.8623 16.8891 63.586 23.9988 47.9633Z" fill="#705A52"/>
<path d="M19.6397 47.7968L20.3097 48.1435L19.8064 48.2935L19.3064 48.4402L19.1397 47.9435L18.9697 47.4502L19.6397 47.7968Z" fill="white"/>
<path d="M19.6397 47.7968L20.3097 48.1435L19.8064 48.2935L19.3064 48.4402L19.1397 47.9435L18.9697 47.4502L19.6397 47.7968Z" fill="white"/>
<path d="M21.0665 45.0634L21.7331 45.41L21.2331 45.5567L20.7298 45.7067L20.5631 45.21L20.3965 44.7134L21.0665 45.0634Z" fill="white"/>
<path d="M19.6661 46.1733L20.336 46.5233L19.8327 46.67L19.3327 46.82L19.1628 46.3233L18.9961 45.8267L19.6661 46.1733Z" fill="white"/>
<path d="M21.0895 43.4404L21.7595 43.7904L21.2562 43.9371L20.7562 44.0837L20.5895 43.5904L20.4229 43.0938L21.0895 43.4404Z" fill="white"/>
<path d="M27.0427 32.9008C25.4145 33.8018 24.0881 35.163 23.2295 36.8139L32.3858 31.7375C30.5291 31.5906 28.6703 31.9953 27.0427 32.9008Z" fill="#705A52"/>
<path d="M28.6388 35.774C27.0136 36.6763 25.159 37.0808 23.3057 36.9373L32.4553 31.8608C31.5964 33.5127 30.2687 34.8741 28.6388 35.774Z" fill="#705A52"/>
<path d="M20.9258 29.8976C20.926 32.3137 21.6404 34.6759 22.9791 36.6873L22.9591 23.1045C21.6255 25.1185 20.9181 27.4821 20.9258 29.8976Z" fill="#705A52"/>
<path d="M25.1558 29.9108C25.1626 32.3256 24.4564 34.6887 23.1259 36.7039L23.1025 23.1211C24.4413 25.1325 25.1556 27.4947 25.1558 29.9108Z" fill="#705A52"/>
</svg>
