<svg width="47" height="45" viewBox="0 0 47 45" fill="none" xmlns="http://www.w3.org/2000/svg">
<path d="M21.5979 1.8541C22.1966 0.0114769 24.8034 0.0114804 25.4021 1.8541L29.4496 14.3111C29.7174 15.1351 30.4853 15.693 31.3517 15.693H44.4497C46.3872 15.693 47.1927 18.1722 45.6253 19.3111L35.0288 27.0099C34.3278 27.5192 34.0345 28.4219 34.3023 29.2459L38.3498 41.7029C38.9485 43.5455 36.8395 45.0778 35.2721 43.939L24.6756 36.2401C23.9746 35.7308 23.0254 35.7308 22.3244 36.2401L11.7279 43.939C10.1605 45.0778 8.05153 43.5455 8.65023 41.7029L12.6977 29.2459C12.9655 28.4219 12.6722 27.5192 11.9712 27.0099L1.37468 19.311C-0.192745 18.1722 0.61281 15.693 2.55026 15.693H15.6483C16.5147 15.693 17.2826 15.1351 17.5504 14.3111L21.5979 1.8541Z" fill="url(#paint0_linear_545_222)"/>
<defs>
<linearGradient id="paint0_linear_545_222" x1="3" y1="-4" x2="52" y2="53" gradientUnits="userSpaceOnUse">
<stop offset="0.225" stop-color="#F4D770"/>
<stop offset="1" stop-color="#FFFDF5"/>
</linearGradient>
</defs>
</svg>
