<svg width="476" height="636" viewBox="0 0 476 636" fill="none" xmlns="http://www.w3.org/2000/svg">
<path d="M177.335 96.7848C176.91 122.006 146.412 148.822 69.0719 85.5053C69.0348 85.5054 178.328 34.6597 177.335 96.7848Z" fill="#7E675E"/>
<g filter="url(#filter0_d_561_555)">
<path d="M136.674 59.1659C128.997 79.3415 96.7355 91.9763 53 18.6895C53 18.6895 155.565 9.56728 136.674 59.1659Z" fill="url(#paint0_linear_561_555)"/>
</g>
<g filter="url(#filter1_d_561_555)">
<path d="M167.37 109.422C142.803 115.336 109.228 92.5041 151.207 1.92872C151.207 1.85455 227.805 94.8442 167.37 109.422Z" fill="url(#paint1_linear_561_555)"/>
</g>
<g filter="url(#filter2_d_561_555)">
<path d="M166.726 376.51C155.422 387.251 130.436 385.408 124.924 324.053C124.901 324.014 194.525 350.074 166.726 376.51Z" fill="#7E675E"/>
<path d="M215.673 389.849C204.31 400.624 179.394 398.767 173.848 337.353C173.848 337.353 243.543 363.398 215.673 389.849Z" fill="#7E675E"/>
<path d="M261.716 394.605C250.413 405.345 225.426 403.503 219.914 342.148C219.871 342.12 289.507 368.2 261.716 394.605Z" fill="#7E675E"/>
<path d="M308.269 405.153C296.977 415.913 271.99 414.071 266.467 352.696C266.424 352.668 336.137 378.835 308.269 405.153Z" fill="#7E675E"/>
<path d="M128.064 360.28C129.128 375.841 111.778 393.889 60.9141 359.023C60.9141 359.023 125.461 322.019 128.064 360.28Z" fill="#7E675E"/>
<path d="M169.436 368.019C176.99 381.629 168.966 405.369 108.1 395.394C108.081 395.406 150.799 334.514 169.436 368.019Z" fill="#7E675E"/>
<path d="M221.041 374.781C228.606 388.41 220.571 412.13 159.686 402.167C159.635 402.171 202.364 341.298 221.041 374.781Z" fill="#7E675E"/>
<path d="M263.774 387.132C271.359 400.749 263.324 424.469 202.438 414.507C202.438 414.507 245.156 353.615 263.774 387.132Z" fill="#7E675E"/>
<path d="M308.559 400.644C316.147 414.312 308.137 437.939 247.181 427.991C247.181 427.991 289.921 367.138 308.559 400.644Z" fill="#7E675E"/>
<path d="M448.679 503.102C409.58 426.455 313.5 405.896 313.5 405.896Z" fill="#7E675E"/>
<path d="M448.679 503.102C409.58 426.455 313.5 405.896 313.5 405.896" stroke="#5E594F" stroke-width="0.92" stroke-miterlimit="10"/>
<path d="M449.251 503.405C286.381 420.815 168.004 483.393 168.004 483.393C168.004 483.393 270.563 440.857 446.791 504.228" fill="#7E675E"/>
<path d="M448.941 503.055C308.721 449.038 216.961 510.072 216.961 510.072C216.961 510.072 297.389 466.733 446.987 503.928" fill="#7E675E"/>
</g>
<g filter="url(#filter3_d_561_555)">
<path d="M139.188 252.727C120.229 263.035 87.4869 251.622 102.096 167.628C102.079 167.567 185.818 227.343 139.188 252.727Z" fill="#7E675E"/>
<path d="M199.841 288.091C180.791 298.425 148.149 287.018 162.733 202.931C162.733 202.931 246.572 262.714 199.841 288.091Z" fill="#7E675E"/>
<path d="M259.688 310.941C240.73 321.249 207.987 309.836 222.596 225.842C222.549 225.789 306.296 285.596 259.688 310.941Z" fill="#7E675E"/>
<path d="M318.145 341.719C299.195 352.058 266.452 340.645 281.053 256.62C281.006 256.567 364.825 316.519 318.145 341.719Z" fill="#7E675E"/>
<path d="M93.3171 217.182C89.1654 238.365 59.507 256.278 4 191.449C4 191.449 103.541 165.102 93.3171 217.182Z" fill="#7E675E"/>
<path d="M145.851 242.348C151.075 263.247 131.845 292.108 54.052 256.973C54.0215 256.981 132.939 190.881 145.851 242.348Z" fill="#7E675E"/>
<path d="M212.414 269.869C217.646 290.799 198.407 319.63 120.584 284.503C120.514 284.489 199.44 218.419 212.414 269.869Z" fill="#7E675E"/>
<path d="M265.115 301.687C270.378 322.608 251.139 351.439 173.316 316.312C173.316 316.312 252.233 250.212 265.115 301.687Z" fill="#7E675E"/>
<path d="M320.145 335.791C325.394 356.782 306.222 385.496 228.299 350.363C228.299 350.363 307.232 284.325 320.145 335.791Z" fill="#7E675E"/>
<path d="M470.756 522.951C445.943 406.482 324.865 344.584 324.865 344.584Z" fill="#7E675E"/>
<path d="M470.756 522.951C445.943 406.482 324.865 344.584 324.865 344.584" stroke="#5E594F" stroke-width="0.92" stroke-miterlimit="10"/>
<path d="M471.414 523.56C283.27 354.813 102.607 396.065 102.607 396.065C102.607 396.065 254.946 375.94 467.83 523.78" fill="#7E675E"/>
<path d="M471.128 522.982C303.029 400.545 158.501 449.269 158.501 449.269C158.501 449.269 281.542 420.141 468.203 523.45" fill="#7E675E"/>
</g>
<g filter="url(#filter4_d_561_555)">
<path d="M167.338 109.865C142.772 115.78 109.197 92.9474 151.176 2.37208C151.176 2.29791 227.774 95.2876 167.338 109.865Z" fill="#7E675E"/>
<path d="M225.226 168.248C200.548 174.163 167.085 151.367 209.064 60.6805C209.064 60.6805 285.773 153.707 225.226 168.248Z" fill="#7E675E"/>
<path d="M285.993 212.231C261.426 218.145 227.851 195.313 269.83 104.737C269.793 104.663 346.391 197.69 285.993 212.231Z" fill="#7E675E"/>
<path d="M342.782 264.758C318.215 270.709 284.64 247.877 326.62 157.265C326.582 157.191 403.218 250.403 342.782 264.758Z" fill="#7E675E"/>
<path d="M178.02 100.146C177.595 125.367 147.098 152.184 69.7575 88.8666C69.7204 88.8667 179.013 38.021 178.02 100.146Z" fill="#7E675E"/>
<path d="M244.97 151.448C244.545 176.706 214.047 203.485 136.67 140.169C136.595 140.132 245.888 89.3232 244.97 151.448Z" fill="#7E675E"/>
<path d="M294.935 203.408C294.546 228.666 264.049 255.445 186.672 192.128C186.672 192.128 295.964 141.283 294.935 203.408Z" fill="#7E675E"/>
<path d="M346.837 258.66C346.412 283.993 316.025 310.66 238.537 247.307C238.537 247.307 347.83 196.535 346.837 258.66Z" fill="#7E675E"/>
<path d="M460.47 515.995C467.702 376.742 349.516 270.036 349.516 270.036Z" fill="#7E675E"/>
<path d="M460.47 515.995C467.702 376.742 349.516 270.036 349.516 270.036" stroke="#5E594F" stroke-width="0.92" stroke-miterlimit="10"/>
<path d="M461.024 516.883C299.365 268.999 82.5215 260.905 82.5215 260.905C82.5215 260.905 260.925 284.311 456.904 516.045" fill="#7E675E"/>
<path d="M460.874 516.143C307.851 326.714 129.614 338.021 129.614 338.021C129.614 338.021 277.609 342.366 457.423 515.784" fill="#7E675E"/>
</g>
<defs>
<filter id="filter0_d_561_555" x="49" y="18.0293" width="93.9961" height="64.7598" filterUnits="userSpaceOnUse" color-interpolation-filters="sRGB">
<feFlood flood-opacity="0" result="BackgroundImageFix"/>
<feColorMatrix in="SourceAlpha" type="matrix" values="0 0 0 0 0 0 0 0 0 0 0 0 0 0 0 0 0 0 127 0" result="hardAlpha"/>
<feOffset dy="4"/>
<feGaussianBlur stdDeviation="2"/>
<feComposite in2="hardAlpha" operator="out"/>
<feColorMatrix type="matrix" values="0 0 0 0 0.368627 0 0 0 0 0.34902 0 0 0 0 0.309804 0 0 0 0.25 0"/>
<feBlend mode="normal" in2="BackgroundImageFix" result="effect1_dropShadow_561_555"/>
<feBlend mode="normal" in="SourceGraphic" in2="effect1_dropShadow_561_555" result="shape"/>
</filter>
<filter id="filter1_d_561_555" x="127.264" y="1.92871" width="67.334" height="116.367" filterUnits="userSpaceOnUse" color-interpolation-filters="sRGB">
<feFlood flood-opacity="0" result="BackgroundImageFix"/>
<feColorMatrix in="SourceAlpha" type="matrix" values="0 0 0 0 0 0 0 0 0 0 0 0 0 0 0 0 0 0 127 0" result="hardAlpha"/>
<feOffset dy="4"/>
<feGaussianBlur stdDeviation="2"/>
<feComposite in2="hardAlpha" operator="out"/>
<feColorMatrix type="matrix" values="0 0 0 0 0.368627 0 0 0 0 0.34902 0 0 0 0 0.309804 0 0 0 0.25 0"/>
<feBlend mode="normal" in2="BackgroundImageFix" result="effect1_dropShadow_561_555"/>
<feBlend mode="normal" in="SourceGraphic" in2="effect1_dropShadow_561_555" result="shape"/>
</filter>
<filter id="filter2_d_561_555" x="56.9141" y="322.054" width="396.336" height="194.019" filterUnits="userSpaceOnUse" color-interpolation-filters="sRGB">
<feFlood flood-opacity="0" result="BackgroundImageFix"/>
<feColorMatrix in="SourceAlpha" type="matrix" values="0 0 0 0 0 0 0 0 0 0 0 0 0 0 0 0 0 0 127 0" result="hardAlpha"/>
<feOffset dy="2"/>
<feGaussianBlur stdDeviation="2"/>
<feComposite in2="hardAlpha" operator="out"/>
<feColorMatrix type="matrix" values="0 0 0 0 0 0 0 0 0 0 0 0 0 0 0 0 0 0 0.25 0"/>
<feBlend mode="normal" in2="BackgroundImageFix" result="effect1_dropShadow_561_555"/>
<feBlend mode="normal" in="SourceGraphic" in2="effect1_dropShadow_561_555" result="shape"/>
</filter>
<filter id="filter3_d_561_555" x="0" y="165.628" width="475.414" height="364.152" filterUnits="userSpaceOnUse" color-interpolation-filters="sRGB">
<feFlood flood-opacity="0" result="BackgroundImageFix"/>
<feColorMatrix in="SourceAlpha" type="matrix" values="0 0 0 0 0 0 0 0 0 0 0 0 0 0 0 0 0 0 127 0" result="hardAlpha"/>
<feOffset dy="2"/>
<feGaussianBlur stdDeviation="2"/>
<feComposite in2="hardAlpha" operator="out"/>
<feColorMatrix type="matrix" values="0 0 0 0 0 0 0 0 0 0 0 0 0 0 0 0 0 0 0.25 0"/>
<feBlend mode="normal" in2="BackgroundImageFix" result="effect1_dropShadow_561_555"/>
<feBlend mode="normal" in="SourceGraphic" in2="effect1_dropShadow_561_555" result="shape"/>
</filter>
<filter id="filter4_d_561_555" x="65.7578" y="0.37207" width="399.49" height="522.511" filterUnits="userSpaceOnUse" color-interpolation-filters="sRGB">
<feFlood flood-opacity="0" result="BackgroundImageFix"/>
<feColorMatrix in="SourceAlpha" type="matrix" values="0 0 0 0 0 0 0 0 0 0 0 0 0 0 0 0 0 0 127 0" result="hardAlpha"/>
<feOffset dy="2"/>
<feGaussianBlur stdDeviation="2"/>
<feComposite in2="hardAlpha" operator="out"/>
<feColorMatrix type="matrix" values="0 0 0 0 0 0 0 0 0 0 0 0 0 0 0 0 0 0 0.25 0"/>
<feBlend mode="normal" in2="BackgroundImageFix" result="effect1_dropShadow_561_555"/>
<feBlend mode="normal" in="SourceGraphic" in2="effect1_dropShadow_561_555" result="shape"/>
</filter>
<linearGradient id="paint0_linear_561_555" x1="94.2765" y1="14.7366" x2="100.174" y2="76.3165" gradientUnits="userSpaceOnUse">
<stop stop-color="#9A837A"/>
<stop offset="0.605" stop-color="#7E675E"/>
</linearGradient>
<linearGradient id="paint1_linear_561_555" x1="160.649" y1="1.89353" x2="161.053" y2="110.293" gradientUnits="userSpaceOnUse">
<stop stop-color="#9A837A"/>
<stop offset="0.605" stop-color="#7E675E"/>
</linearGradient>
</defs>
</svg>
