<svg width="193" height="194" viewBox="0 0 193 194" fill="none" xmlns="http://www.w3.org/2000/svg">
<path d="M90.2748 74.9014C86.0107 75.9111 80.2031 71.93 87.5414 56.25C87.5414 56.2371 100.765 72.4188 90.2748 74.9014Z" fill="white"/>
<path d="M100.275 85.0635C96.0107 86.0732 90.2031 82.0986 97.5414 66.4121C97.5414 66.3993 110.765 82.5809 100.275 85.0635Z" fill="white"/>
<path d="M110.771 92.7295C106.513 93.7393 100.705 89.7582 108.044 74.0781C108.05 74.0653 121.267 90.2534 110.771 92.7295Z" fill="white"/>
<path d="M120.595 101.882C116.331 102.892 110.523 98.9105 117.862 83.2305C117.862 83.2112 131.085 99.3929 120.595 101.882Z" fill="white"/>
<path d="M83.1771 65.493C81.2477 69.4227 74.4624 71.3521 67.0469 55.6914C67.0469 55.6914 87.9493 55.8329 83.1771 65.493Z" fill="white"/>
<path d="M92.1246 73.2218C92.0345 77.5953 86.7285 82.226 73.3574 71.1959C73.3574 71.1959 92.3368 62.4491 92.1246 73.2218Z" fill="white"/>
<path d="M103.695 82.1632C103.605 86.5431 98.2994 91.1674 84.9219 80.1373C84.8962 80.1373 103.908 71.3905 103.695 82.1632Z" fill="white"/>
<path d="M112.339 91.2062C112.256 95.5861 106.95 100.21 93.5723 89.1803C93.5723 89.1803 112.552 80.4334 112.339 91.2062Z" fill="white"/>
<path d="M121.305 100.819C121.215 105.199 115.909 109.823 102.531 98.7999C102.531 98.7999 121.517 90.0466 121.305 100.819Z" fill="white"/>
<path d="M140.85 145.519C142.194 121.376 121.768 102.795 121.768 102.795" stroke="white" stroke-width="0.92" stroke-miterlimit="10"/>
<path d="M140.94 145.674C113.065 102.583 75.4668 101.039 75.4668 101.039C75.4668 101.039 106.383 105.213 140.226 145.526" fill="white"/>
<path d="M140.916 145.565C114.483 112.597 83.6113 114.443 83.6113 114.443C83.6113 114.443 109.279 115.292 140.35 145.481" fill="white"/>
<path d="M20.89 37.3289C20.7889 37.3748 20.6793 37.3985 20.5684 37.3985C20.4575 37.3985 20.3478 37.3748 20.2468 37.3289C20.0403 37.2396 19.8766 37.0736 19.7902 36.8659L11.5 17.3591C11.4549 17.2579 11.4316 17.1483 11.4316 17.0375C11.4316 16.9267 11.4549 16.8172 11.5 16.716C11.5894 16.5201 11.7505 16.3659 11.9502 16.285C12.1525 16.1946 12.3803 16.1787 12.5933 16.24C12.6985 16.2793 12.7939 16.3411 12.8728 16.4211C12.9517 16.5011 13.0121 16.5973 13.0499 16.7031L14.0533 19.0699C14.238 17.8899 14.6769 16.7642 15.3396 15.7705C16.1327 14.5739 17.2793 13.6543 18.6196 13.14C20.0668 12.4944 21.6816 12.3255 23.231 12.6577C24.7283 12.9697 26.1078 13.6962 27.2121 14.7543C27.2817 13.0875 27.8287 11.4758 28.7878 10.1108C29.6276 8.92928 30.7724 7.99789 32.1001 7.41599C33.3758 6.87796 34.7712 6.68679 36.1446 6.86186C37.5181 7.03693 38.8208 7.57202 39.9208 8.41288C41.2235 9.43681 42.2275 10.7917 42.8278 12.3361L48.1403 24.8261C48.2194 25.0332 48.2194 25.2622 48.1403 25.4692C48.1012 25.5804 48.0384 25.6817 47.9562 25.7662C47.874 25.8506 47.7744 25.9161 47.6643 25.958C47.5638 26.0056 47.454 26.0302 47.3428 26.0302C47.2315 26.0302 47.1217 26.0056 47.0212 25.958C46.9184 25.9146 46.8251 25.8514 46.7468 25.772C46.6684 25.6925 46.6065 25.5984 46.5645 25.495L41.2521 12.9921C40.7708 11.7194 39.9446 10.6059 38.866 9.77636C37.95 9.10399 36.8708 8.68876 35.7403 8.57367C34.7093 8.44912 33.6636 8.59313 32.7046 8.99171C31.6857 9.41982 30.7981 10.1099 30.132 10.9919C29.4412 11.9086 28.9822 12.9788 28.7943 14.1112C28.6002 15.3448 28.7724 16.6083 29.2895 17.745L34.7306 30.5437C34.788 30.6481 34.8181 30.7654 34.8181 30.8846C34.8181 31.0038 34.788 31.121 34.7306 31.2254C34.6219 31.4155 34.4518 31.5629 34.2482 31.6435C34.0629 31.7213 33.8569 31.7349 33.6629 31.6821C33.547 31.6508 33.4409 31.5908 33.3543 31.5076C33.2678 31.4244 33.2036 31.3207 33.1677 31.2061L27.7717 18.4525C27.3154 17.3339 26.5803 16.3508 25.6364 15.5969C24.7573 14.9014 23.7181 14.4371 22.6136 14.2463C21.5118 14.0668 20.3817 14.2097 19.3593 14.6579C18.3429 15.0904 17.4564 15.7797 16.7867 16.6581C16.07 17.5854 15.6048 18.6819 15.436 19.8417C15.2612 21.1574 15.4642 22.4958 16.0213 23.7006L21.353 36.1841C21.4322 36.3912 21.4322 36.6202 21.353 36.8273C21.3162 36.9392 21.2558 37.0418 21.1759 37.1284C21.0961 37.2149 20.9985 37.2833 20.89 37.3289Z" fill="white"/>
<path d="M53.3171 37.1873C53.2041 37.2069 53.0883 37.2021 52.9774 37.1733C52.8665 37.1444 52.763 37.0922 52.6739 37.0201C52.5876 36.9551 52.5156 36.873 52.4625 36.779C52.4094 36.6849 52.3763 36.5809 52.3652 36.4734C52.3286 36.2549 52.36 36.0303 52.4552 35.8303C52.5069 35.7352 52.5818 35.6547 52.6728 35.5962C52.7639 35.5378 52.8682 35.5032 52.9762 35.4958C53.8509 35.4023 54.6554 34.9735 55.2208 34.2996C55.8923 33.4808 56.4207 32.5545 56.7837 31.5597C57.23 30.396 57.5974 29.2034 57.8834 27.9902C58.1793 26.7361 58.4623 25.5013 58.7388 24.2986L48.3391 4.02001C48.2862 3.93818 48.2512 3.84615 48.2362 3.74989C48.2084 3.6052 48.2311 3.45536 48.3005 3.32541C48.3756 3.19321 48.4788 3.07905 48.6028 2.99097C48.7246 2.8913 48.8676 2.8209 49.0208 2.78516C49.191 2.76888 49.3624 2.80005 49.516 2.8752C49.5951 2.9041 49.6667 2.95027 49.7257 3.01035C49.7847 3.07043 49.8295 3.14291 49.8569 3.2225L59.2598 21.5909L63.7554 1.49886C63.7998 1.33458 63.8915 1.18698 64.0191 1.07438C64.1428 0.966352 64.2943 0.895067 64.4564 0.868572C64.608 0.847429 64.7623 0.862866 64.9066 0.913592C65.0394 0.958335 65.1589 1.03574 65.254 1.1387C65.3532 1.26448 65.4135 1.41647 65.4276 1.57604C65.4521 1.67313 65.4521 1.77479 65.4276 1.87189L60.4046 24.0863C60.1409 25.3212 59.8193 26.6589 59.4527 28.1382C59.0985 29.5588 58.6473 30.9534 58.1021 32.3122C57.6309 33.5215 56.9639 34.6449 56.1276 35.6373C55.4202 36.4905 54.4161 37.0443 53.3171 37.1873Z" fill="white"/>
<path d="M72.2841 23.7649C72.1742 23.7568 72.0676 23.7244 71.9719 23.6698C71.8762 23.6153 71.7939 23.5401 71.731 23.4497C71.6577 23.3607 71.6029 23.258 71.5698 23.1475C71.5367 23.0371 71.5259 22.9212 71.538 22.8066L73.3196 1.73051C73.3212 1.61756 73.348 1.50641 73.3981 1.40516C73.4482 1.3039 73.5202 1.21511 73.609 1.14524C73.7789 1.01354 73.9935 0.953529 74.2071 0.978019C74.327 0.977271 74.4458 1.00082 74.5563 1.04725C74.6669 1.09367 74.7669 1.16201 74.8503 1.24814C74.9284 1.33414 74.9863 1.43654 75.0197 1.54784C75.0531 1.65913 75.0611 1.77649 75.0432 1.89129L74.8245 4.4639C75.5318 3.50548 76.4379 2.71127 77.4808 2.13569C78.7232 1.44225 80.1498 1.1502 81.5648 1.29959C83.0951 1.41685 84.5637 1.9531 85.8096 2.84959C87.0465 3.72424 88.0456 4.89363 88.7166 6.25186C89.3951 7.63594 89.6778 9.18065 89.5334 10.7153L88.4015 24.2215C88.401 24.3462 88.3717 24.4691 88.3159 24.5807C88.2601 24.6922 88.1794 24.7894 88.0799 24.8646C87.893 24.9969 87.6643 25.0564 87.4367 25.0319C87.2323 25.013 87.0421 24.9191 86.9029 24.7682C86.8221 24.6834 86.7612 24.5817 86.7245 24.4705C86.6878 24.3592 86.6762 24.2412 86.6907 24.125L87.8226 10.6189C87.9262 9.43055 87.7039 8.23649 87.1795 7.16513C86.659 6.0418 85.8759 5.06018 84.8963 4.30311C83.9361 3.548 82.7706 3.09974 81.5519 3.01681C80.448 2.92971 79.3404 3.12909 78.3361 3.59564C77.2672 4.07877 76.3412 4.82978 75.6478 5.77592C74.8762 6.85648 74.4299 8.1352 74.3615 9.46118L73.2295 22.9673C73.2105 23.1934 73.1045 23.4033 72.9337 23.5526C72.8469 23.6324 72.744 23.6927 72.6319 23.7293C72.5199 23.7659 72.4012 23.7781 72.2841 23.7649Z" fill="white"/>
<path d="M101.495 29.0569C100.04 28.6025 98.7442 27.7438 97.7586 26.5808C96.7691 25.4274 96.0876 24.0424 95.7777 22.5547C95.4549 21.0819 95.5326 19.5495 96.0028 18.1169L100.203 5.21533C100.237 5.10706 100.294 5.00716 100.369 4.92192C100.445 4.83669 100.537 4.76797 100.64 4.72011C100.838 4.61604 101.068 4.59298 101.283 4.65579C101.387 4.69005 101.483 4.74621 101.564 4.82053C101.645 4.89484 101.709 4.98559 101.753 5.0867C101.845 5.28884 101.859 5.51813 101.791 5.72985L97.5978 18.625C97.225 19.7586 97.165 20.9718 97.4241 22.1366C97.6726 23.3344 98.209 24.4535 98.987 25.3974C99.7706 26.3669 100.825 27.0811 102.016 27.4491C103.187 27.8458 104.447 27.8928 105.644 27.5841C106.823 27.2795 107.908 26.6873 108.801 25.8605C109.694 25.059 110.36 24.0363 110.731 22.8956L114.944 9.94893C114.978 9.8445 115.034 9.74859 115.108 9.66762C115.183 9.58665 115.273 9.52249 115.374 9.47942C115.577 9.38707 115.806 9.37331 116.018 9.44084C116.127 9.46961 116.228 9.52196 116.315 9.59419C116.402 9.66642 116.471 9.75677 116.519 9.85888C116.604 10.065 116.604 10.2959 116.519 10.502L112.358 23.4165C111.893 24.8606 111.049 26.1533 109.914 27.1596C108.786 28.1682 107.424 28.8799 105.952 29.2306C104.48 29.5982 102.934 29.5379 101.495 29.0569Z" fill="white"/>
<path d="M120.772 37.3746C118.753 36.2812 117.466 34.9777 116.913 33.4642C116.36 31.9507 116.643 30.1584 117.762 28.0875L130.394 4.7861C130.441 4.68162 130.514 4.59023 130.604 4.51969C130.695 4.44915 130.801 4.40154 130.914 4.38091C131.114 4.33339 131.324 4.35847 131.506 4.45166C131.701 4.55765 131.854 4.72816 131.937 4.93402C131.977 5.03824 131.993 5.15014 131.985 5.26145C131.976 5.37276 131.942 5.48066 131.886 5.57717L126.94 14.6971L132.696 17.8099C132.792 17.86 132.876 17.9293 132.943 18.0134C133.011 18.0975 133.06 18.1946 133.088 18.2987C133.146 18.5157 133.116 18.7468 133.005 18.9419C132.953 19.0375 132.884 19.1222 132.8 19.1908C132.716 19.2595 132.619 19.3108 132.515 19.3419C132.411 19.373 132.302 19.3832 132.194 19.3719C132.086 19.3607 131.981 19.3282 131.886 19.2763L126.129 16.157L119.248 28.8528C118.367 30.4735 118.103 31.8049 118.457 32.8596C118.81 33.9144 119.846 34.9434 121.557 35.8824L122.541 36.4163C122.731 36.5145 122.877 36.6828 122.946 36.8858C122.98 36.9922 122.991 37.1048 122.978 37.2158C122.965 37.3269 122.927 37.4337 122.869 37.5289C122.763 37.7291 122.583 37.8794 122.367 37.947C122.264 37.9881 122.152 38.006 122.041 37.9993C121.93 37.9926 121.822 37.9616 121.724 37.9084L120.772 37.3746Z" fill="white"/>
<path d="M126.114 40.8021C126.026 40.7363 125.952 40.6523 125.899 40.5558C125.846 40.4593 125.814 40.3525 125.805 40.2426C125.789 40.1296 125.796 40.0146 125.825 39.9042C125.853 39.7938 125.904 39.6902 125.973 39.5994L138.572 22.5752C138.634 22.4819 138.716 22.4031 138.811 22.3443C138.907 22.2855 139.014 22.248 139.125 22.2344C139.339 22.2137 139.553 22.2758 139.723 22.408C139.913 22.5369 140.048 22.7317 140.103 22.9547C140.125 23.0676 140.122 23.184 140.093 23.2954C140.064 23.4067 140.01 23.5101 139.936 23.5978L138.405 25.6623C139.132 25.3676 139.9 25.1834 140.682 25.1157C141.546 25.0458 142.417 25.1263 143.254 25.3536C144.247 25.6224 145.178 26.0835 145.994 26.7107L147.435 27.7783C147.523 27.8405 147.598 27.9208 147.653 28.0139C147.709 28.107 147.744 28.2109 147.756 28.3186C147.771 28.4324 147.762 28.5479 147.731 28.6583C147.7 28.7687 147.647 28.8719 147.576 28.9617C147.446 29.1364 147.251 29.2521 147.035 29.2835C146.819 29.3148 146.6 29.2593 146.425 29.1289L144.984 28.0677C144.072 27.3789 142.998 26.936 141.865 26.7814C140.696 26.6265 139.506 26.7749 138.411 27.2123C137.19 27.733 136.141 28.5866 135.382 29.6756L127.343 40.622C127.207 40.8034 127.006 40.9254 126.783 40.9629C126.667 40.9868 126.546 40.9848 126.431 40.957C126.315 40.9292 126.207 40.8763 126.114 40.8021Z" fill="white"/>
<path d="M142.826 56.0185C141.484 54.6391 140.478 52.9686 139.887 51.137C139.363 49.5038 139.29 47.7596 139.675 46.0882C140.092 44.3941 141.011 42.8654 142.312 41.7019L146.029 38.2289C147.204 37.12 148.677 36.3779 150.267 36.0937C151.883 35.7917 153.547 35.8889 155.117 36.3767C157.458 37.0878 159.439 38.668 160.653 40.7931C161.867 42.9182 162.222 45.4271 161.645 47.8055C161.229 49.3778 160.364 50.7948 159.156 51.883C158.5 52.605 157.637 53.1079 156.686 53.3237C156.033 53.4145 155.37 53.251 154.834 52.8671C154.28 52.4687 153.767 52.0163 153.303 51.5164L145.997 43.7472L144.936 44.7441C144.317 45.2779 143.833 45.9494 143.521 46.7045C143.21 47.4596 143.079 48.2772 143.141 49.0918C143.316 50.8828 144.118 52.5546 145.405 53.8125C146.042 54.5547 146.829 55.1532 147.714 55.5683C148.321 55.8356 148.949 56.0508 149.592 56.2114C150.029 56.2809 150.434 56.4803 150.756 56.7838C150.991 57.0134 151.129 57.324 151.142 57.6521C151.155 57.9672 151.098 58.2813 150.975 58.5718C150.872 58.8127 150.724 59.0311 150.537 59.2149C150.294 59.3775 150.02 59.4882 149.733 59.5402C149.445 59.5922 149.15 59.5844 148.865 59.5172C147.87 59.3731 146.911 59.046 146.035 58.5525C144.832 57.893 143.747 57.0364 142.826 56.0185ZM147.971 41.8692L154.126 48.4486C154.487 48.9231 154.975 49.2846 155.535 49.4905C155.76 49.4956 155.983 49.4497 156.188 49.3561C156.393 49.2626 156.574 49.1238 156.718 48.9503C157.417 48.3096 157.934 47.4952 158.217 46.5899C158.498 45.6814 158.542 44.7162 158.345 43.7858C158.129 42.7977 157.638 41.8906 156.93 41.1681C156.277 40.4567 155.451 39.927 154.531 39.631C153.645 39.343 152.702 39.2789 151.785 39.4445C150.851 39.62 149.99 40.0674 149.309 40.7308L147.971 41.8692Z" fill="white"/>
<path d="M152.8 69.1322C151.913 67.7029 151.564 66.0041 151.816 64.3408C152.074 62.7136 153.148 61.3372 155.032 60.2246C155.657 59.8029 156.361 59.511 157.101 59.3663C157.841 59.2216 158.603 59.2269 159.341 59.3821C160.813 59.7939 162.129 60.6333 163.123 61.7939C164.443 63.2623 165.601 64.8688 166.577 66.5854L167.76 68.592L168.635 68.0775C169.473 67.5752 170.21 66.9208 170.808 66.148C171.41 65.4091 171.797 64.5192 171.928 63.5754C172.019 62.4637 171.734 61.3536 171.117 60.424C170.682 59.6244 170.121 58.8993 169.458 58.2759C169.03 57.8917 168.559 57.5573 168.056 57.279C167.721 57.1275 167.434 56.8873 167.226 56.5844C167.113 56.3874 167.057 56.1628 167.064 55.9358C167.07 55.7087 167.14 55.4879 167.265 55.2981C167.494 54.888 167.821 54.5411 168.217 54.2883C168.502 54.1652 168.815 54.1199 169.123 54.1572C169.432 54.1945 169.725 54.313 169.972 54.5006C170.8 54.9817 171.552 55.582 172.204 56.2821C172.944 57.0412 173.592 57.8853 174.134 58.7968C175.179 60.3893 175.73 62.2557 175.716 64.1607C175.646 65.7125 175.116 67.2084 174.191 68.4569C173.251 69.7055 172.07 70.753 170.718 71.5376L160.016 77.8212C159.839 77.9188 159.641 77.9731 159.439 77.9798C159.237 77.9865 159.036 77.9454 158.852 77.8598C158.383 77.6556 157.996 77.3001 157.753 76.8501C157.504 76.4466 157.403 75.9689 157.47 75.4994C157.488 75.3008 157.552 75.109 157.657 74.9394C157.761 74.7697 157.904 74.6268 158.074 74.5218L159.746 73.5443C158.423 73.2955 157.142 72.8625 155.939 72.258C154.61 71.5451 153.519 70.4584 152.8 69.1322ZM156.241 68.5727C156.74 69.4004 157.45 70.0798 158.299 70.5407C159.164 71.034 160.116 71.353 161.103 71.4797C161.912 71.6274 162.748 71.5006 163.477 71.1196L165.65 69.8333L164.789 68.3862C164.14 67.2675 163.418 66.1933 162.628 65.1704C162.006 64.3201 161.187 63.6337 160.242 63.1702C159.79 62.9931 159.302 62.9304 158.821 62.9876C158.339 63.0448 157.88 63.2203 157.482 63.4982C157.02 63.7193 156.614 64.0427 156.296 64.4438C155.977 64.845 155.754 65.3134 155.643 65.8136C155.507 66.7752 155.719 67.7538 156.241 68.5727Z" fill="white"/>
<path d="M163.174 90.3253C162.278 87.8599 162.143 85.7868 162.769 84.106C163.395 82.4253 164.896 81.139 167.271 80.2471L190.746 71.7254C190.945 71.6571 191.159 71.6438 191.365 71.6868C191.571 71.7298 191.761 71.8276 191.917 71.9698C192.295 72.2664 192.582 72.663 192.746 73.1146C192.918 73.5791 192.958 74.0822 192.862 74.5681C192.835 74.7776 192.751 74.9756 192.619 75.1411C192.488 75.3065 192.314 75.433 192.116 75.5071L183.401 78.6778L185.485 84.4662C185.552 84.6325 185.574 84.8137 185.548 84.9911C185.522 85.1686 185.449 85.3359 185.337 85.4759C185.096 85.7875 184.77 86.0222 184.398 86.1512C184.037 86.2898 183.643 86.3167 183.266 86.2284C183.093 86.1888 182.934 86.1043 182.804 85.9835C182.674 85.8627 182.579 85.7098 182.527 85.5402L180.436 79.8033L168.68 84.0739C167.393 84.5434 166.557 85.1608 166.229 85.9133C165.901 86.6658 165.991 87.7463 166.499 89.129L167.014 90.5375C167.115 90.7617 167.162 91.0062 167.152 91.2518C167.142 91.4974 167.075 91.7373 166.956 91.9525C166.736 92.3373 166.384 92.6296 165.965 92.7757C165.549 92.9228 165.095 92.9228 164.679 92.7757C164.446 92.6914 164.237 92.553 164.068 92.3718C163.899 92.1907 163.776 91.972 163.708 91.7338L163.174 90.3253Z" fill="white"/>
<path d="M166.114 96.9366C166.104 96.8265 166.118 96.7156 166.155 96.6112C166.192 96.5069 166.25 96.4117 166.327 96.332C166.478 96.1639 166.687 96.0583 166.912 96.0362L188.014 94.1067C188.128 94.0893 188.245 94.097 188.356 94.1292C188.467 94.1614 188.57 94.2174 188.657 94.2932C188.812 94.44 188.906 94.6397 188.921 94.8528C188.953 95.0799 188.895 95.3107 188.76 95.4959C188.691 95.5844 188.603 95.6567 188.503 95.7078C188.403 95.7589 188.293 95.7875 188.181 95.7918L185.608 96.0233C186.676 96.5496 187.615 97.3024 188.361 98.2293C189.261 99.349 189.786 100.724 189.86 102.159C190.032 103.733 189.699 105.321 188.908 106.693C188.148 108.016 187.035 109.101 185.692 109.825C187.259 110.404 188.626 111.422 189.628 112.758C190.496 113.915 191.032 115.287 191.178 116.726C191.308 118.07 191.087 119.424 190.535 120.656C189.948 121.951 189.021 123.062 187.853 123.872C186.477 124.797 184.878 125.334 183.222 125.428L169.716 126.644C169.602 126.659 169.486 126.65 169.375 126.618C169.264 126.586 169.161 126.531 169.073 126.457C168.978 126.387 168.899 126.296 168.843 126.192C168.788 126.087 168.756 125.971 168.751 125.853C168.74 125.743 168.753 125.633 168.789 125.529C168.826 125.426 168.886 125.332 168.964 125.255C169.036 125.17 169.124 125.1 169.224 125.049C169.323 124.998 169.431 124.968 169.542 124.959L183.049 123.743C184.402 123.671 185.708 123.226 186.824 122.457C187.751 121.805 188.486 120.917 188.953 119.884C189.385 118.943 189.569 117.907 189.487 116.874C189.386 115.779 188.997 114.73 188.361 113.832C187.694 112.895 186.812 112.132 185.788 111.607C184.674 111.047 183.42 110.824 182.18 110.964L168.32 112.211C168.205 112.23 168.086 112.22 167.975 112.185C167.863 112.149 167.761 112.088 167.677 112.006C167.536 111.842 167.45 111.637 167.433 111.42C167.417 111.219 167.467 111.019 167.574 110.848C167.641 110.748 167.731 110.667 167.836 110.611C167.942 110.555 168.059 110.526 168.179 110.526L182.013 109.279C183.22 109.191 184.383 108.792 185.39 108.121C186.322 107.498 187.082 106.651 187.602 105.658C188.111 104.667 188.323 103.55 188.213 102.442C188.103 101.351 187.716 100.306 187.088 99.4063C186.384 98.3706 185.407 97.5513 184.264 97.0401C183.121 96.5289 181.858 96.3461 180.618 96.5121L167.111 97.7277C166.881 97.7505 166.651 97.6837 166.468 97.5412C166.369 97.4717 166.287 97.3817 166.226 97.2774C166.165 97.1731 166.127 97.0568 166.114 96.9366Z" fill="white"/>
<path d="M165.29 140.523C165.604 138.799 166.323 137.174 167.387 135.783C168.346 134.535 169.627 133.573 171.092 132.998C172.624 132.426 174.289 132.317 175.883 132.683L181.819 133.885C183.313 134.174 184.695 134.879 185.807 135.918C186.916 136.93 187.753 138.203 188.244 139.622C188.731 141.039 188.833 142.56 188.539 144.029C188.245 145.498 187.566 146.862 186.572 147.983C185.58 149.106 184.319 149.959 182.906 150.459C181.418 150.977 179.814 151.07 178.276 150.729C177.4 150.625 176.577 150.252 175.922 149.662C175.503 149.219 175.273 148.631 175.278 148.022C175.296 147.373 175.372 146.727 175.504 146.092L177.787 134.837L175.549 134.387C174.587 134.149 173.583 134.138 172.617 134.355C171.65 134.571 170.747 135.009 169.979 135.635C168.361 137.005 167.283 138.906 166.937 140.998C166.674 142.024 166.634 143.095 166.821 144.137C166.956 144.759 167.172 145.36 167.464 145.925C167.678 146.24 167.776 146.62 167.741 146.999C167.709 147.154 167.628 147.294 167.509 147.398C167.394 147.5 167.261 147.581 167.117 147.636C166.988 147.687 166.848 147.703 166.712 147.681C166.422 147.623 166.114 147.288 165.779 146.671C165.388 145.894 165.148 145.049 165.072 144.182C164.942 142.959 165.016 141.722 165.29 140.523ZM179.44 135.133L177.279 145.816C177.053 146.586 177.006 147.398 177.144 148.189C177.294 148.592 177.722 148.868 178.43 149.019C179.613 149.248 180.834 149.189 181.989 148.846C183.145 148.504 184.2 147.888 185.067 147.051C185.986 146.142 186.601 144.972 186.829 143.7C187.091 142.489 187.004 141.229 186.579 140.066C186.175 138.936 185.496 137.924 184.604 137.12C183.718 136.319 182.631 135.775 181.459 135.545L179.44 135.133Z" fill="white"/>
<path d="M162.454 152.537C162.498 152.435 162.564 152.344 162.648 152.271C162.731 152.197 162.83 152.143 162.936 152.112C163.143 152.033 163.372 152.033 163.579 152.112L182.874 160.795C182.979 160.834 183.074 160.897 183.152 160.978C183.23 161.06 183.289 161.157 183.324 161.264C183.363 161.368 183.379 161.479 183.373 161.59C183.366 161.701 183.336 161.809 183.285 161.907C183.202 162.123 183.038 162.298 182.829 162.396C182.728 162.442 182.618 162.466 182.507 162.466C182.396 162.466 182.286 162.442 182.186 162.396L179.838 161.348C180.511 162.33 180.961 163.447 181.157 164.621C181.383 166.04 181.158 167.493 180.513 168.776C179.894 170.182 178.899 171.391 177.639 172.268C176.417 173.128 175.004 173.675 173.522 173.863C171.984 174.05 170.425 173.803 169.02 173.15L156.633 167.586C156.519 167.544 156.415 167.476 156.331 167.388C156.246 167.3 156.182 167.194 156.144 167.078C156.087 166.864 156.105 166.637 156.196 166.435C156.286 166.25 156.439 166.102 156.627 166.017C156.735 165.962 156.855 165.933 156.977 165.933C157.099 165.933 157.219 165.962 157.328 166.017L169.715 171.58C170.805 172.068 172.008 172.25 173.194 172.108C174.41 171.974 175.578 171.563 176.609 170.905C177.64 170.248 178.454 169.302 178.951 168.184C179.398 167.175 179.579 166.068 179.478 164.969C179.378 163.8 178.977 162.676 178.314 161.708C177.548 160.623 176.488 159.779 175.259 159.277L162.878 153.714C162.673 153.619 162.51 153.452 162.422 153.244C162.372 153.132 162.348 153.009 162.354 152.887C162.36 152.764 162.394 152.644 162.454 152.537Z" fill="white"/>
<path d="M148.755 177.516C150.041 175.629 151.477 174.491 153.064 174.101C154.65 173.711 156.404 174.185 158.325 175.522L180.147 190.585C180.244 190.645 180.326 190.726 180.387 190.823C180.447 190.921 180.484 191.031 180.494 191.144C180.52 191.349 180.472 191.557 180.359 191.73C180.235 191.912 180.05 192.044 179.838 192.103C179.728 192.131 179.614 192.135 179.503 192.114C179.392 192.093 179.286 192.047 179.195 191.981L170.647 186.083L166.924 191.46C166.865 191.55 166.787 191.628 166.696 191.687C166.606 191.745 166.503 191.784 166.396 191.8C166.284 191.819 166.17 191.814 166.059 191.788C165.949 191.761 165.845 191.713 165.753 191.646C165.663 191.585 165.586 191.507 165.527 191.415C165.468 191.323 165.429 191.22 165.412 191.112C165.387 191.002 165.386 190.888 165.408 190.777C165.43 190.666 165.475 190.561 165.541 190.469L169.265 185.092L157.373 176.886C155.855 175.84 154.556 175.432 153.475 175.664C152.388 175.895 151.289 176.828 150.163 178.449L149.52 179.362C149.404 179.542 149.221 179.67 149.012 179.716C148.901 179.741 148.786 179.742 148.674 179.718C148.563 179.693 148.459 179.644 148.369 179.574C148.181 179.445 148.05 179.25 148.002 179.027C147.972 178.918 147.966 178.804 147.987 178.693C148.007 178.581 148.051 178.476 148.118 178.384L148.755 177.516Z" fill="white"/>
<path d="M18.2254 156.402L12.6621 146.439L21.5505 151.411L30.4324 156.383L21.5633 161.386L12.6943 166.39L18.2254 156.402Z" fill="white"/>
<path d="M69.1838 161.876L61.4824 169.609L69.526 177.619L77.2274 169.886L69.1838 161.876Z" fill="white"/>
<path d="M84.5607 149.373L78.332 156.426L87.954 164.924L94.1827 157.871L84.5607 149.373Z" fill="white"/>
<path d="M112.789 156.253V167.444C121.007 164.774 128.822 160.996 136.02 156.215L112.789 156.253Z" fill="white"/>
<path d="M112.192 156.254L30.75 156.383C42.6367 164.196 56.116 169.26 70.2067 171.207C84.2975 173.154 98.6451 171.935 112.205 167.638L112.192 156.254Z" fill="white"/>
<path d="M108.673 161.649L108.68 163.128L107.966 162.389L107.252 161.649L107.959 160.91L108.673 160.17V161.649Z" fill="#705A52"/>
<path d="M65.9044 161.72V163.199L65.1905 162.46L64.4766 161.72L65.1905 160.98L65.8979 160.234L65.9044 161.72Z" fill="#705A52"/>
<path d="M65.9038 165.276L65.9102 166.762L65.1963 166.022L64.4824 165.283L65.1899 164.536L65.9038 163.797V165.276Z" fill="#705A52"/>
<path d="M47.7169 158.182V159.668L47.003 158.928L46.2891 158.189L47.003 157.443L47.7169 156.703V158.182Z" fill="#705A52"/>
<path d="M47.7227 161.747V163.226L47.0088 162.486L46.2949 161.753L47.0088 161.007L47.7163 160.268L47.7227 161.747Z" fill="#705A52"/>
<path d="M53.7813 161.74V163.219L53.0674 162.479L52.3535 161.74L53.0674 161L53.7813 160.254V161.74Z" fill="#705A52"/>
<path d="M59.8393 161.727L59.8458 163.207L59.1319 162.467L58.418 161.727L59.1254 160.988L59.8393 160.248V161.727Z" fill="#705A52"/>
<path d="M59.8458 165.29L59.8522 166.769L59.1319 166.029L58.418 165.29L59.1319 164.55L59.8458 163.811V165.29Z" fill="#705A52"/>
<path d="M65.9044 161.72V163.199L65.1905 162.46L64.4766 161.72L65.1905 160.98L65.8979 160.234L65.9044 161.72Z" fill="#705A52"/>
<path d="M65.9038 165.276L65.9102 166.762L65.1963 166.022L64.4824 165.283L65.1899 164.536L65.9038 163.797V165.276Z" fill="#705A52"/>
<path d="M90.4981 161.675V163.16L89.7842 162.421L89.0703 161.681L89.7842 160.941L90.4917 160.195L90.4981 161.675Z" fill="#705A52"/>
<path d="M90.504 165.239V166.718L89.7901 165.985L89.0762 165.245L89.7901 164.499L90.4975 163.76L90.504 165.239Z" fill="#705A52"/>
<path d="M72.3165 161.708V163.187L71.6026 162.447L70.8887 161.708L71.6026 160.968L72.3165 160.229V161.708Z" fill="#705A52"/>
<path d="M72.3223 165.27V166.75L71.6084 166.01L70.8945 165.27L71.6084 164.531L72.3223 163.791V165.27Z" fill="#705A52"/>
<path d="M78.3745 161.701L78.3809 163.18L77.667 162.44L76.9531 161.701L77.6606 160.961L78.3745 160.215V161.701Z" fill="#705A52"/>
<path d="M78.3823 165.257L78.3887 166.742L77.6748 166.003L76.9609 165.263L77.6684 164.517L78.3823 163.777V165.257Z" fill="#705A52"/>
<path d="M84.4395 161.688V163.167L83.7256 162.428L83.0117 161.688L83.7256 160.949L84.4331 160.209L84.4395 161.688Z" fill="#705A52"/>
<path d="M84.4389 165.251L84.4454 166.73L83.7315 165.99L83.0176 165.251L83.725 164.511L84.4389 163.771V165.251Z" fill="#705A52"/>
<path d="M90.4981 161.675V163.16L89.7842 162.421L89.0703 161.681L89.7842 160.941L90.4917 160.195L90.4981 161.675Z" fill="#705A52"/>
<path d="M90.504 165.239V166.718L89.7901 165.985L89.0762 165.245L89.7901 164.499L90.4975 163.76L90.504 165.239Z" fill="#705A52"/>
<path d="M96.5567 161.669V163.148L95.8428 162.408L95.1289 161.669L95.8428 160.929L96.5567 160.189V161.669Z" fill="#705A52"/>
<path d="M96.5606 165.231V166.71L95.8467 165.971L95.1328 165.231L95.8467 164.492L96.5542 163.752L96.5606 165.231Z" fill="#705A52"/>
<path d="M102.617 161.655L102.623 163.141L101.903 162.401L101.195 161.661L101.903 160.922L102.617 160.176V161.655Z" fill="#705A52"/>
<path d="M108.679 165.212L108.686 166.691L107.972 165.951L107.258 165.212L107.965 164.472L108.679 163.732V165.212Z" fill="#705A52"/>
<path d="M102.623 165.219V166.699L101.909 165.959L101.195 165.219L101.909 164.48L102.623 163.74V165.219Z" fill="#705A52"/>
<path d="M105.463 160.227L105.469 161.707L104.755 160.967L104.035 160.234L104.749 159.488L105.463 158.748V160.227Z" fill="#705A52"/>
<path d="M105.469 163.792L105.475 165.271L104.755 164.531L104.041 163.792L104.755 163.052L105.469 162.312V163.792Z" fill="#705A52"/>
<path d="M62.687 160.3L62.6934 161.779L61.9795 161.039L61.2656 160.3L61.9731 159.56L62.687 158.82V160.3Z" fill="#705A52"/>
<path d="M62.6948 163.862L62.7012 165.341L61.9873 164.602L61.2734 163.862L61.9809 163.122L62.6948 162.383V163.862Z" fill="#705A52"/>
<path d="M44.5118 160.331V161.811L43.7979 161.071L43.084 160.331L43.7979 159.592L44.5053 158.846L44.5118 160.331Z" fill="#705A52"/>
<path d="M50.5723 160.319V161.798L49.8584 161.059L49.1445 160.319L49.8584 159.579L50.5723 158.84V160.319Z" fill="#705A52"/>
<path d="M56.629 160.312L56.6354 161.791L55.9151 161.051L55.2012 160.312L55.9151 159.572L56.629 158.826V160.312Z" fill="#705A52"/>
<path d="M56.6348 163.868V165.347L55.9209 164.614L55.207 163.874L55.9209 163.128L56.6348 162.389V163.868Z" fill="#705A52"/>
<path d="M62.687 160.3L62.6934 161.779L61.9795 161.039L61.2656 160.3L61.9731 159.56L62.687 158.82V160.3Z" fill="#705A52"/>
<path d="M62.6948 163.862L62.7012 165.341L61.9873 164.602L61.2734 163.862L61.9809 163.122L62.6948 162.383V163.862Z" fill="#705A52"/>
<path d="M87.2891 160.259V161.738L86.5752 160.999L85.8613 160.259L86.5752 159.519L87.2827 158.773L87.2891 160.259Z" fill="#705A52"/>
<path d="M87.2905 163.817L87.2969 165.303L86.583 164.563L85.8691 163.824L86.583 163.084L87.2905 162.338V163.817Z" fill="#705A52"/>
<path d="M87.2944 167.38L87.3008 168.865L86.5869 168.126L85.873 167.386L86.5805 166.64L87.2944 165.9V167.38Z" fill="#705A52"/>
<path d="M69.1075 160.286V161.765L68.3936 161.032L67.6797 160.292L68.3936 159.546L69.1075 158.807V160.286Z" fill="#705A52"/>
<path d="M69.1133 163.848V165.328L68.3994 164.588L67.6855 163.855L68.3994 163.109L69.1069 162.369L69.1133 163.848Z" fill="#705A52"/>
<path d="M69.1192 167.413V168.892L68.4053 168.152L67.6914 167.413L68.4053 166.673L69.1128 165.934L69.1192 167.413Z" fill="#705A52"/>
<path d="M75.1655 160.28L75.1719 161.759L74.458 161.02L73.7441 160.28L74.4516 159.54L75.1655 158.801V160.28Z" fill="#705A52"/>
<path d="M75.1719 163.843V165.322L74.458 164.583L73.7441 163.843L74.458 163.103L75.1719 162.357V163.843Z" fill="#705A52"/>
<path d="M75.1778 167.399V168.885L74.4639 168.145L73.75 167.406L74.4639 166.666L75.1778 165.92V167.399Z" fill="#705A52"/>
<path d="M81.2241 160.266L81.2305 161.746L80.5166 161.006L79.8027 160.273L80.5102 159.527L81.2241 158.787V160.266Z" fill="#705A52"/>
<path d="M81.23 163.829L81.2364 165.308L80.5225 164.568L79.8086 163.829L80.5161 163.089L81.23 162.35V163.829Z" fill="#705A52"/>
<path d="M81.2364 167.393L81.2428 168.873L80.5225 168.133L79.8086 167.393L80.5225 166.654L81.2364 165.914V167.393Z" fill="#705A52"/>
<path d="M87.2891 160.259V161.738L86.5752 160.999L85.8613 160.259L86.5752 159.519L87.2827 158.773L87.2891 160.259Z" fill="#705A52"/>
<path d="M87.2905 163.817L87.2969 165.303L86.583 164.563L85.8691 163.824L86.583 163.084L87.2905 162.338V163.817Z" fill="#705A52"/>
<path d="M87.2944 167.38L87.3008 168.865L86.5869 168.126L85.873 167.386L86.5805 166.64L87.2944 165.9V167.38Z" fill="#705A52"/>
<path d="M93.3477 160.247V161.726L92.6338 160.993L91.9199 160.253L92.6338 159.507L93.3413 158.768L93.3477 160.247Z" fill="#705A52"/>
<path d="M93.3536 163.811V165.291L92.6397 164.551L91.9258 163.811L92.6397 163.072L93.3471 162.332L93.3536 163.811Z" fill="#705A52"/>
<path d="M93.3594 167.374V168.853L92.6455 168.113L91.9316 167.374L92.6455 166.634L93.353 165.895L93.3594 167.374Z" fill="#705A52"/>
<path d="M99.4044 160.242V161.721L98.6905 160.981L97.9766 160.242L98.6905 159.502L99.4044 158.756V160.242Z" fill="#705A52"/>
<path d="M99.4122 163.798V165.283L98.6983 164.544L97.9844 163.804L98.6983 163.064L99.4057 162.318L99.4122 163.798Z" fill="#705A52"/>
<path d="M99.418 167.36V168.839L98.7041 168.106L97.9902 167.367L98.7041 166.62L99.4116 165.881L99.418 167.36Z" fill="#705A52"/>
<path d="M123.523 159.025C123.372 159.025 123.224 158.98 123.098 158.896C122.972 158.812 122.874 158.692 122.816 158.552C122.758 158.413 122.743 158.259 122.773 158.11C122.802 157.962 122.875 157.825 122.982 157.718C123.089 157.611 123.225 157.538 123.374 157.509C123.522 157.479 123.676 157.494 123.816 157.552C123.956 157.61 124.075 157.708 124.16 157.834C124.244 157.96 124.289 158.108 124.289 158.259C124.289 158.462 124.208 158.657 124.064 158.801C123.921 158.944 123.726 159.025 123.523 159.025Z" fill="#705A52"/>
<path d="M123.523 157.694C123.635 157.694 123.745 157.727 123.838 157.789C123.931 157.851 124.003 157.94 124.046 158.043C124.089 158.146 124.1 158.26 124.078 158.37C124.057 158.48 124.003 158.581 123.924 158.66C123.844 158.739 123.744 158.793 123.634 158.815C123.524 158.837 123.41 158.825 123.307 158.783C123.203 158.74 123.115 158.667 123.053 158.574C122.991 158.481 122.957 158.372 122.957 158.26C122.956 158.185 122.971 158.111 122.999 158.042C123.027 157.973 123.068 157.91 123.121 157.858C123.174 157.805 123.237 157.763 123.306 157.735C123.375 157.707 123.449 157.693 123.523 157.694ZM123.523 157.295C123.267 157.295 123.022 157.397 122.841 157.577C122.66 157.758 122.559 158.004 122.559 158.26C122.559 158.516 122.66 158.761 122.841 158.942C123.022 159.123 123.267 159.224 123.523 159.224C123.779 159.224 124.025 159.123 124.205 158.942C124.386 158.761 124.488 158.516 124.488 158.26C124.488 158.004 124.386 157.758 124.205 157.577C124.025 157.397 123.779 157.295 123.523 157.295Z" fill="#705A52"/>
<path d="M46.3073 93.4054C51.356 82.3303 46.5646 74.5353 43.8505 72.966C41.0077 71.6476 31.8686 72.2007 25.6879 82.684C8.8952 111.227 8.20703 141.449 8.20703 141.449C8.20703 141.449 32.5889 123.55 46.3073 93.4054Z" fill="white"/>
<path d="M37.8943 93.0829L39.187 93.7518L38.2159 94.0412L37.2511 94.3242L36.9296 93.3659L36.6016 92.4141L37.8943 93.0829Z" fill="#705A52"/>
<path d="M37.8943 93.0829L39.187 93.7518L38.2159 94.0412L37.2511 94.3242L36.9296 93.3659L36.6016 92.4141L37.8943 93.0829Z" fill="#705A52"/>
<path d="M40.6463 87.8101L41.9325 88.479L40.9678 88.7619L39.9967 89.0514L39.6751 88.0931L39.3535 87.1348L40.6463 87.8101Z" fill="#705A52"/>
<path d="M37.947 89.9501L39.2398 90.6254L38.2686 90.9084L37.3039 91.1978L36.9759 90.2395L36.6543 89.2812L37.947 89.9501Z" fill="#705A52"/>
<path d="M40.6926 84.6767L41.9853 85.352L41.0141 85.635L40.0494 85.918L39.7278 84.9661L39.4062 84.0078L40.6926 84.6767Z" fill="#705A52"/>
<path d="M52.178 64.3405C49.0363 66.0792 46.4771 68.7055 44.8203 71.8911L62.4877 62.0959C58.905 61.8125 55.3185 62.5933 52.178 64.3405Z" fill="white"/>
<path d="M55.2592 69.8846C52.1233 71.6255 48.5448 72.4061 44.9688 72.1292L62.6232 62.334C60.966 65.5214 58.4041 68.1481 55.2592 69.8846Z" fill="white"/>
<path d="M40.3771 58.5449C40.3775 63.207 41.7558 67.7649 44.3389 71.6459L44.3003 45.4375C41.7272 49.3235 40.3621 53.8843 40.3771 58.5449Z" fill="white"/>
<path d="M48.5399 58.5717C48.553 63.2311 47.1905 67.7908 44.6231 71.6791L44.5781 45.4707C47.1612 49.3517 48.5396 53.9096 48.5399 58.5717Z" fill="white"/>
</svg>
